<svg xmlns="http://www.w3.org/2000/svg" width="175.565" height="42.191"><g data-name="Grupo 24389"><g data-name="Grupo 585"><g data-name="Grupo 584"><path data-name="Trazado 1589" d="M117.464 5.93h5.089v36.262l-21.641-27.3v21.38h-5.087V0l21.64 27.255zM73.725 36.268h17.882v-4.784h-12.8v-9.32h11.932v-4.672H78.813v-6.775h12.792V5.93H73.726zm101.84 0h-5.553l-3.607-8.059h-11.787l-3.6 8.059h-5.543L160.432 3.39zm-11.311-12.886l-3.737-8.362-3.741 8.362zm-20.86-2.3a14.2 14.2 0 00-5.385-3.372l-2.065-.826c-2.411-.938-3.533-2.046-3.533-3.487 0-2.032 2.1-3.4 4.07-3.4a4.208 4.208 0 013.981 2.391l.379.647 3.769-3.18a8.9 8.9 0 00-8.054-4.786 9.966 9.966 0 00-6.351 2.187 7.832 7.832 0 00-2.885 6.153c0 4.559 3.4 6.66 6.724 8.112l1.993.857c2.783 1.175 4.509 2.395 4.509 4.85a4.716 4.716 0 01-4.475 4.945h-.092a4.889 4.889 0 01-3.54-1.447 4.582 4.582 0 01-1.239-2.528h-5.184l.007.058a10.462 10.462 0 003.168 6.316 9.464 9.464 0 006.473 2.534 9.705 9.705 0 009.96-9.442v-.427a8.668 8.668 0 00-2.23-6.152zm-85.744 11.1A11.019 11.019 0 0146.732 21.1a10.921 10.921 0 0118.75-7.845l.03.031a10.61 10.61 0 01.78.913l3.823-3.166q-.533-.649-1.129-1.241a16.021 16.021 0 00-22.655-.025l-.012.011-.013.013a16.065 16.065 0 1022.935 22.5q.486-.5.928-1.032l-3.979-3.267a10.851 10.851 0 01-8.54 4.19z" fill="#19a301"/></g></g><path data-name="Path 11861" d="M13.775.974a.176.176 0 01.137-.035.155.155 0 00.067-.008.882.882 0 01.286-.046c.026 0 .064.023.077.012.041-.033.058.016.082.013.061 0 .128.03.184-.023a1.651 1.651 0 00.239-.031.107.107 0 00.072-.026.793.793 0 01.222-.137 1.213 1.213 0 01.253-.061c.179-.016.362-.021.55-.031a.741.741 0 00.118-.015.947.947 0 01.222-.062c.086 0 .128-.074.2-.091V.425l-.015-.016h-.193c-.076.071-.169.048-.26.053a.894.894 0 00-.377.058.822.822 0 01-.339.056.289.289 0 00-.074.02l-.194.033a1.774 1.774 0 00-.209.036 2.849 2.849 0 01-.55.138c-.049.045-.115.012-.168.035a1.663 1.663 0 01-.286.081.68.68 0 00-.137.035.183.183 0 00-.031.03c.012 0 .023.013.033.013a.142.142 0 00.091-.023zm-8.9 6.789a.631.631 0 00.216-.2c.036-.044.066-.094.1-.138a.043.043 0 01.02-.018c.061-.026.109-.056.112-.138 0-.023.043-.064.09-.072s-.01-.069.058-.087a.237.237 0 00.125-.15.087.087 0 00-.008-.041 1.038 1.038 0 00-.109.082c-.031.03-.049.072-.082.1-.051.053-.077.132-.155.158 0 .058-.074.048-.086.087s-.059.079-.091.117c-.069.077-.138.155-.207.235a.126.126 0 00-.016.048.071.071 0 000 .026zm3.547-3.18c-.069.016-.109.079-.165.105a1.8 1.8 0 00-.413.308.637.637 0 01-.077.049c-.028.02-.059.038-.087.059s-.043.053-.071.061a.452.452 0 00-.181.138c-.026.023-.059.039-.086.063s-.012.028-.016.043.025.013.035.011a.141.141 0 00.058-.026 1.036 1.036 0 01.188-.153c.091-.041.153-.115.242-.155.026-.011.063-.031.071-.054.016-.049.059-.059.092-.084.071-.059.146-.114.22-.168a.415.415 0 01.12-.087.473.473 0 00.178-.109.222.222 0 00.021-.033h-.069a.252.252 0 01-.059.032zm13.444 29.258a.28.28 0 01-.138.008.637.637 0 00-.168.021.213.213 0 00-.089.025c-.02.013-.061-.011-.092-.01a.262.262 0 00-.128.021c-.046.046-.084 0-.127.008a.779.779 0 01-.138.013.263.263 0 00-.081.008.264.264 0 01-.206 0 .215.215 0 00-.107-.008.535.535 0 01-.329 0 .094.094 0 00-.043 0l-.016.018c0 .007 0 .033.013.035a1.222 1.222 0 00.155.03h.166c.025 0 .061.03.069.021.044-.043.1-.02.137-.021s.1 0 .153 0h.128a.691.691 0 01.226-.023h.041c.056-.049.123-.018.184-.026a1.543 1.543 0 01.2-.026.4.4 0 00.2-.033.283.283 0 01.138-.025h.112c.01 0 .018-.012.039-.03-.023-.013-.038-.025-.049-.023a.705.705 0 00-.25.017zm17.148-13.7a.639.639 0 010-.137.68.68 0 00-.074-.346.946.946 0 01-.066-.308v-.653c0-.049.02-.1-.026-.138a.042.042 0 010-.039c.053-.081.018-.17.026-.253a.854.854 0 01.026-.309.1.1 0 000-.081c-.039-.049-.021-.105-.026-.158a.255.255 0 000-.051.992.992 0 01-.048-.26.72.72 0 00-.086-.328.226.226 0 01-.026-.114 2.591 2.591 0 00-.058-.49c0-.035-.03-.068-.025-.1a.856.856 0 00-.035-.181c0-.021-.025-.04-.023-.059a.526.526 0 00-.086-.313.216.216 0 01-.013-.191.112.112 0 00-.008-.125.227.227 0 01-.035-.153v-.207c-.069-.069-.061-.168-.1-.25s-.114-.161-.1-.268a.151.151 0 00-.058-.158.092.092 0 01-.025-.058q-.04-.123-.089-.242c-.02-.082-.02-.181-.107-.234v-.026c-.03-.072-.038-.153-.069-.222a2.4 2.4 0 01-.128-.365c-.008-.044-.049-.087-.049-.13a.287.287 0 00-.035-.138c-.043-.069.007-.166-.079-.219-.008 0 0-.036 0-.054a4.648 4.648 0 00-.03-.211.062.062 0 00-.02-.033.121.121 0 01-.038-.082.737.737 0 00-.053-.158 2.034 2.034 0 01-.068-.168.248.248 0 00-.066-.127c-.046-.04-.03-.114-.058-.17a.949.949 0 01-.062-.2.579.579 0 00-.091-.253.856.856 0 01-.1-.181.243.243 0 00-.044-.077c-.03-.033-.061-.059-.01-.1v-.025c-.066 0-.038-.076-.069-.094-.059-.039-.071-.1-.1-.158a.393.393 0 00-.081-.137.156.156 0 01-.031-.056.959.959 0 00-.138-.275.437.437 0 01-.069-.151c-.013-.043 0-.11-.054-.128s-.059-.058-.079-.092a1.376 1.376 0 01-.056-.13.331.331 0 00-.061-.114c-.044-.035-.04-.092-.069-.125-.054-.061-.066-.137-.117-.2s-.033-.153-.09-.212a.094.094 0 00-.069-.107c-.069-.02-.084-.076-.117-.122-.008-.013-.011-.043-.02-.044-.089-.013-.082-.114-.138-.151a.115.115 0 01-.041-.107.122.122 0 00-.082-.136.16.16 0 01-.053-.041c-.061-.076-.168-.117-.178-.232-.107-.1-.145-.24-.237-.346a.1.1 0 01-.033-.084.118.118 0 00-.054-.117.821.821 0 00-.059-.072c-.069-.059-.086-.151-.145-.22a2.227 2.227 0 00-.138-.137 3.03 3.03 0 01-.181-.229.1.1 0 01-.018-.138c.02-.033.007-.053-.033-.048s-.082 0-.092-.04a.054.054 0 00-.066-.044h-.04a.523.523 0 01-.12-.16.162.162 0 00-.1-.122.135.135 0 01-.059-.057 2.678 2.678 0 01-.2-.334c-.025-.053-.044-.056-.109-.035-.016 0-.043.015-.048.008a1.01 1.01 0 00-.214-.158 1.188 1.188 0 01-.16-.155 1.089 1.089 0 01-.15-.138c-.03-.048-.049-.109-.12-.138s-.041-.123-.109-.161c-.02-.01-.023-.058-.041-.061-.082-.021-.1-.1-.138-.153s-.058-.091-.123-.086a.08.08 0 01-.048-.016.962.962 0 01-.276-.277.757.757 0 00-.155-.184c-.1-.086-.214-.163-.311-.255a.162.162 0 00-.138-.049H31.4a.092.092 0 01-.051-.013 5.218 5.218 0 01-.226-.2v-.026a.086.086 0 01.03 0 .636.636 0 01.058.028c.02.01.018 0 .02 0s.008-.02 0-.025a.2.2 0 01-.033-.043 1.34 1.34 0 00-.295-.232.944.944 0 00-.327-.22c-.054-.068-.151-.074-.207-.132a1.613 1.613 0 00-.247-.184.782.782 0 01-.086-.059c-.044-.04-.087-.084-.13-.127-.081.023-.1-.079-.16-.084-.066-.074-.166-.094-.245-.151a3.213 3.213 0 00-.365-.227 2.14 2.14 0 01-.211-.13.692.692 0 01-.138-.091c-.043-.053-.127-.028-.156-.1a.335.335 0 01-.207-.1c-.1-.079-.219-.138-.313-.22a.075.075 0 00-.038-.01.379.379 0 01-.25-.079.922.922 0 00-.293-.165 1.115 1.115 0 01-.354-.156c-.061-.039-.125-.059-.184-.094-.035-.021-.086.015-.114-.031-.123-.01-.211-.128-.341-.119-.031-.048-.079-.049-.132-.058s-.087-.049-.143-.054c-.036 0-.068-.048-.1-.051a1.258 1.258 0 01-.4-.112.083.083 0 00-.028 0v.028c.01.044.064.079.033.138l-.128-.049-.025-.008a.4.4 0 00-.161-.051.577.577 0 01-.3-.094.169.169 0 00-.123-.046.617.617 0 01-.326-.092.442.442 0 00-.214-.051.143.143 0 01-.112-.035.379.379 0 00-.235-.1 1.4 1.4 0 01-.283-.064c-.036 0-.067-.039-.1-.053s-.094-.016-.137-.03a.975.975 0 01-.118-.054c-.038.048-.092.021-.137.026a.088.088 0 01-.048-.02 2.017 2.017 0 00-.4-.145.366.366 0 00-.1-.026.43.43 0 01-.109-.039c-.054-.016-.112-.09-.179-.02a.045.045 0 01-.041 0c-.079-.051-.176-.041-.26-.077a.449.449 0 00-.275-.028c-.056.013-.1.04-.146 0a.288.288 0 01-.169.028.073.073 0 01-.036-.013.149.149 0 00-.137-.01.656.656 0 01-.329 0 .243.243 0 00-.186.011c-.026.016-.038 0-.059 0-.048-.018-.11-.049-.148-.033-.094.041-.2.026-.288.076a.074.074 0 01-.053 0 .253.253 0 00-.207 0 .057.057 0 01-.046 0 .112.112 0 00-.115 0 .166.166 0 01-.062.016 3.594 3.594 0 01-.377 0c-.123-.011-.245.063-.367 0h-.053a.4.4 0 01-.074.02c-.168 0-.334.01-.5 0s-.334.036-.5.031a.725.725 0 00-.156.026l-.016.021c.041.026.058.089.119.089h.388c.023-.072.079.02.109-.021h.4c.018.039.046-.01.059 0 .033.038.051 0 .081 0a.084.084 0 01.079 0c.041.038.087.016.132.025s.086.02.128.026a.2.2 0 00.063-.015c.013 0 .031-.016.036-.012.044.044.089.028.138 0a.156.156 0 00.137.025c.035-.008.059.049.092.008a1.707 1.707 0 01.342 0 .778.778 0 00.214.011.221.221 0 01.092 0c.061.02.137 0 .188.056a.076.076 0 01.028-.016.15.15 0 01.066 0 .712.712 0 00.276.028c.03 0 .059.015.091.015.1 0 .2.089.309.041a.055.055 0 01.039 0 .679.679 0 00.313.051c.033 0 .076-.015.1 0a.171.171 0 00.138.021c.059-.01.1.035.155.03a2.335 2.335 0 01.352.066 1.093 1.093 0 01.188.049.792.792 0 00.2.025.087.087 0 01.039.01.608.608 0 00.331.074h.053a.279.279 0 00.2.064.958.958 0 00.219.016.139.139 0 01.082 0 1.226 1.226 0 00.467.077.137.137 0 01.1.036.564.564 0 00.183.125 1.9 1.9 0 00.382.086.726.726 0 01.249.076.29.29 0 00.151.041.989.989 0 01.276.053c.068.016.119.084.2.058a.058.058 0 01.016.031.405.405 0 01-.013.077c-.018-.01-.038-.018-.058-.026h-.054c-.061-.011-.039.049-.064.072s.016.061.033.061c.107.008.181.114.3.092a.162.162 0 01.058.026.871.871 0 00.288.112c.023 0 .036.044.068.015l-.059-.053c-.038-.028-.077-.076-.118-.079-.072 0-.105-.061-.161-.084a1.518 1.518 0 01-.171-.087.042.042 0 01-.013-.035c0-.008.018-.018.03-.02a.7.7 0 01.316.109.306.306 0 00.117.056.511.511 0 01.191.079.2.2 0 00.181.063c.03-.008.051.01.074.026a.213.213 0 00.086.026.389.389 0 01.217.114.048.048 0 01.011.036c0 .008-.018.018-.03.018A.6.6 0 0126.886 2c-.035-.015-.053-.008-.067.015-.033.046-.059.1-.091.138a.068.068 0 01-.1.025 1.119 1.119 0 00-.472-.138.163.163 0 01-.072-.028c-.069-.035-.148-.051-.216-.086a1.273 1.273 0 00-.23-.082 1.35 1.35 0 01-.275-.1 1.685 1.685 0 00-.276-.086.675.675 0 00-.127-.028.151.151 0 01-.118-.056h-.026a.34.34 0 01-.165-.048l-.039-.033c-.058.036-.084-.007-.119-.038a.071.071 0 00-.048-.018 1.288 1.288 0 01-.293-.058.858.858 0 00-.183-.026.308.308 0 01-.127-.031.845.845 0 00-.329-.082.227.227 0 01-.082 0 .66.66 0 00-.2-.053.619.619 0 01-.225-.028.063.063 0 00-.054 0c-.043.044-.1.018-.138.026a1.8 1.8 0 01-.337-.031.675.675 0 01-.268-.021c-.049-.021-.117 0-.168-.031-.043.038-.086.008-.13 0a1.019 1.019 0 00-.184-.036 3.382 3.382 0 01-.337-.028.188.188 0 01-.071-.028.425.425 0 00-.276-.084c-.008 0-.021-.013-.033-.016a.932.932 0 00-.153-.036h-.293c-.1 0-.183-.039-.275-.03s-.2 0-.339 0a2.793 2.793 0 00-.484.021c-.061.016-.062.008-.062.054s.044.03.069.035.074-.053.112-.021.069.035.107 0a.047.047 0 01.051 0c.044.039.1.025.138.025a.189.189 0 00.117-.021c.026-.016.082.02.125.021h.306a.51.51 0 01.2.025.649.649 0 00.275.03h.1a.328.328 0 01.227.056c.021.013.059.035.071.025.051-.039.074.01.109.026.008 0 .013.013.018.02l-.021.013a.885.885 0 01-.184.03h-.364c-.12 0-.234-.016-.35-.028a.373.373 0 01-.063-.018c-.021 0-.066-.016-.076 0-.054.053-.105 0-.145-.008a.329.329 0 00-.119-.021.574.574 0 01-.295-.066c-.008 0-.025-.01-.028 0-.076.086-.174.025-.262.043-.081-.069-.163-.013-.237.011a.162.162 0 01-.1.013.345.345 0 00-.23 0c-.079.016-.17.079-.253 0a.046.046 0 00-.041 0c-.046.046-.1.025-.156.026h-.433c-.021 0-.056 0-.063.01-.041.071-.1.036-.138.015a.293.293 0 00-.16 0 1.392 1.392 0 01-.309.035c-.026 0-.072.031-.082.021-.082-.079-.2.058-.275-.049h-.01c-.068.064-.151.044-.232.049a.117.117 0 00-.067.031c-.013.015-.01.041-.013.064 0 .049-.01.053-.056.028-.02-.008-.049-.015-.056-.03-.03-.062-.069-.011-.1-.008s-.051.045-.077.045-.046-.038-.072-.046-.064 0-.059.046a.055.055 0 01-.048.061h-.01c-.036 0-.02-.031-.025-.051s-.013-.03-.018-.03c-.049 0-.1-.016-.138.03a.341.341 0 01-.1.069h-.044c-.036-.064-.084-.01-.125-.015s-.041 0-.049.057c0 .008-.023.025-.025.023-.043-.043-.086 0-.137 0a.435.435 0 00-.268.128.09.09 0 01-.066.036c-.12-.011-.217.084-.337.064-.056.043-.13.008-.189.046-.018.011-.044 0-.043.038a.16.16 0 010 .056.068.068 0 01-.087.044l-.021-.01c-.021-.016-.038-.04-.059-.058a.058.058 0 00-.035-.011c-.033.049-.092 0-.125.038a.34.34 0 00-.086.1c-.015.033-.033.025-.054.025s-.028-.018-.028-.041-.015-.048-.051-.031-.056.018-.084.031-.02.018-.03.028l.03.016c.036.015.074.028.107.044s.044.038.068.038.044-.023.067-.036.059-.048.063-.043c.048.044.077.011.114-.018a.08.08 0 01.072 0c.016 0 .036.043.031.053a.137.137 0 01-.059.046c-.038.021-.077.036-.117.054l-.013.02.023.008a.584.584 0 00.23-.048q.067-.02.138-.035a.985.985 0 00.168-.03.7.7 0 01.285-.054c.036 0 .087.015.109 0 .048-.04.1-.016.138-.025a.642.642 0 01.137-.025.4.4 0 00.169-.031 1.306 1.306 0 01.286-.053.392.392 0 00.176-.048.245.245 0 01.151-.041c.137 0 .262-.016.392-.026h.015c.043-.059.119-.008.176-.048s.137 0 .188-.039.064.021.1 0a.38.38 0 01.232-.048h.263a.276.276 0 00.082-.007.522.522 0 01.293 0c.013 0 .031.008.038 0 .043-.044.1-.016.137-.021s.072.011.1 0c.087-.051.179-.013.275-.026.044.044.109.023.16.049s.119 0 .179 0a.025.025 0 01.023.01c.008.01-.013.025-.023.03a.206.206 0 01-.063.016h-.127a.823.823 0 00-.127.026.559.559 0 01-.1.025h-.349c-.115 0-.225.025-.337.025a1.639 1.639 0 01-.323.031h-.013c-.044.051-.105.016-.156.026s-.1.021-.156.028c-.143.01-.288.018-.435.026h-.028c-.127.077-.275.041-.413.081-.109.031-.229.03-.337.062a.639.639 0 01-.138.025.319.319 0 00-.087.021 1.375 1.375 0 01-.453.089.141.141 0 00-.053 0 1.622 1.622 0 01-.5.109c-.016 0-.031.016-.048.016a1.873 1.873 0 01-.321.1c-.059.051-.138.031-.2.051a.918.918 0 01-.158.057.465.465 0 00-.174.051.953.953 0 01-.275.087.723.723 0 00-.221.074c-.074.041-.168.016-.229.087a.049.049 0 01-.04.008.234.234 0 00-.16.051.141.141 0 01-.084.03.633.633 0 00-.237.068c-.048.018-.1.051-.146.041a.614.614 0 00-.174 0 .279.279 0 00-.191.046.086.086 0 01-.077.008.5.5 0 00-.351.007c-.015 0-.018.015-.041.01-.1-.025-.2-.043-.285.061-.018.023-.062.026-.1.036a.075.075 0 01-.051 0c-.03.063-.1.044-.15.084s-.112.044-.161.079a.318.318 0 01-.258.082.031.031 0 00-.023.01 4.326 4.326 0 00-.395.188.544.544 0 01-.206.076.619.619 0 00-.155.035.9.9 0 00-.364.165c-.01.011-.018.023-.028.036-.038.039-.071.1-.117.114-.1.025-.16.105-.239.156a.65.65 0 00-.084.066.036.036 0 000 .036.037.037 0 00.035.008.208.208 0 00.068-.038c.021-.018.044-.026.058 0a.08.08 0 01-.008.064c-.035.061-.109.018-.158.057-.023.02-.018-.03-.033-.041a.055.055 0 00-.046 0 1.773 1.773 0 01-.239.1.384.384 0 00-.173.119l-.01.023h.025a.206.206 0 00.077-.008c.053-.062.138-.053.2-.1a.109.109 0 01.081-.021c.036.035-.035.056-.021.094-.011 0-.035.012-.036.008-.023-.035-.038-.016-.059 0s-.051.051-.076.051c-.107 0-.128.077-.158.151a.434.434 0 01-.242.211.117.117 0 00-.094.045.157.157 0 01-.153.071.12.12 0 00-.1.081c0 .048.044.016.061.03a.638.638 0 01.091.084.029.029 0 010 .028.1.1 0 01-.119.03.244.244 0 01-.127-.063c-.028-.035-.043-.01-.063 0s-.056.025-.064.045c-.03.071-.1.094-.146.146a.083.083 0 01-.089.046.114.114 0 00-.115.058c-.03.038-.051.09-.091.114a.548.548 0 00-.184.189l-.008.028h.036a.762.762 0 00.1-.068c.063-.051.12-.11.188-.155a.377.377 0 01.161-.066c.107-.016.117 0 .137-.076.015-.043.033-.046.066-.044s.044 0 .058-.039.118-.063.155-.038 0 .064-.044.114l-.018.021v.02c.012 0 .03.008.036 0a.785.785 0 01.16-.125 1.068 1.068 0 00.252-.168 1.056 1.056 0 01.212-.125 2.527 2.527 0 00.536-.319.449.449 0 01.138-.087.483.483 0 00.184-.13.364.364 0 01.127-.1c.123-.036.216-.127.332-.173a1.357 1.357 0 00.276-.2c.048-.035.117-.033.151-.071a1.179 1.179 0 01.2-.138.387.387 0 01.178-.069.329.329 0 00.165-.079.306.306 0 01.225-.092.131.131 0 00.1-.035.873.873 0 01.161-.081.744.744 0 01.171-.092.675.675 0 01.2-.043.113.113 0 00.051-.013c.1-.041.216-.049.288-.146h.012l.064.011-.013.051c-.025.056-.086.039-.125.069l-.11.082a.036.036 0 01-.026 0c-.077-.013-.115.056-.173.086a.028.028 0 00.018.053.331.331 0 00.089-.018 1.106 1.106 0 01.265-.1.185.185 0 00.1-.038c.084-.067.194 0 .275-.062.071.064.13 0 .191-.021a1.065 1.065 0 01.125-.033.341.341 0 00.219-.112.67.67 0 01.438-.191.6.6 0 00.077-.012.821.821 0 01.3-.074c.015 0 .03-.021.046-.023.107-.035.211-.076.313-.12a.308.308 0 00.1-.069.6.6 0 00.071-.058.4.4 0 00-.109 0 .579.579 0 00-.181.064.272.272 0 01-.178.044c-.109-.008-.2.054-.311.059-.028 0-.053.048-.081.069s-.026 0-.038.011c-.1.054-.207.021-.313.048a1.3 1.3 0 00-.262.077c-.015 0-.041.011-.046 0-.033-.04-.054-.012-.081.008s-.028 0-.035-.011a.042.042 0 010-.035.193.193 0 01.155-.064c.021 0 .056 0 .058-.018a.132.132 0 01.158-.094.053.053 0 00.035-.01c.114-.082.265-.051.38-.127a.026.026 0 01.026 0c.048.043.079.049.11-.021.008-.018.071 0 .1-.023a.642.642 0 01.229-.084 1.019 1.019 0 01.263-.039.694.694 0 00.209-.013.445.445 0 00.174-.086.243.243 0 01.275-.043c.015.01.043 0 .066 0a.35.35 0 01.074-.018.214.214 0 00.171-.059.088.088 0 01.044-.023.4.4 0 00.163-.046.076.076 0 01.1.016 1.649 1.649 0 01.138.12c.039.043.036 0 .051 0 .068 0 .127-.049.2-.031a.077.077 0 00.054 0 1.216 1.216 0 01.229-.053.654.654 0 01.24-.026c.039-.044.092-.023.137-.028s.1-.021.156-.026c.138-.013.275 0 .413-.021s.29-.043.436-.058.276-.031.406-.033a.155.155 0 01.1.023c.021.015.072-.016.112-.023a.045.045 0 01.035.01c.02.018.033.016.059 0a.442.442 0 01.286-.039.646.646 0 00.158.021c.035 0 .074.015.1-.026.026.038.064.026.1.026h.53c.031 0 .064.012.092-.018a.051.051 0 01.051-.007c.068.048.137.018.211.026a1.342 1.342 0 00.212.026 5.334 5.334 0 00.561.03c.015 0 .031.015.048.016a.686.686 0 00.207.038.231.231 0 01.161.026.118.118 0 00.137.026c.09-.044.181-.011.276-.023.016 0 .043.021.051.015a.04.04 0 01.056-.008l.013.016a.139.139 0 00.156.058c.066-.021.123.061.186 0 .094.053.206.028.3.076a.09.09 0 00.074-.013c.023-.012.084-.026.112.008a.19.19 0 00.169.068.518.518 0 01.138.04c.02 0 .051.02.063.011.072-.059.049.016.046.035a.293.293 0 01-.043.081c-.015.021-.028.01-.049 0a.783.783 0 00-.237-.036.114.114 0 01-.053-.007.718.718 0 00-.276-.049.321.321 0 01-.137-.015.519.519 0 00-.234-.035.654.654 0 01-.138 0 1.8 1.8 0 00-.25 0 2.171 2.171 0 01-.24-.026.936.936 0 01-.337-.028h-.039c-.038.044-.086.023-.13.025h-.413c-.138 0-.275-.03-.42-.03-.191 0-.382.008-.573 0s-.38.035-.574.03h-.293c-.023 0-.054-.01-.069 0-.053.044-.114.018-.169.026s-.122.021-.184.028a2.116 2.116 0 00-.38.025c-.107.028-.226.013-.336.035-.079.015-.163.01-.239.03a.948.948 0 01-.137.023.678.678 0 01-.138.025c-.1 0-.194.051-.295.031-.061.044-.138 0-.2.031a.54.54 0 01-.2.023h-.028a.149.149 0 00-.138.156v.028c-.013.089-.048.119-.137.122a.159.159 0 00-.1.026.178.178 0 01-.1.03 1.376 1.376 0 00-.413.089c-.081.023-.178.011-.247.079h-.041c-.038.008-.077.016-.112.026s-.041.028-.059.026c-.1-.01-.178.086-.283.059a.189.189 0 01-.158.054c-.064 0-.107.048-.171.061-.087.016-.168.061-.257.087a.985.985 0 01-.191.069 1.073 1.073 0 00-.2.069c-.089.023-.176.066-.267.094a1.142 1.142 0 00-.181.066.335.335 0 01-.188.058c-.025 0-.053.028-.079.043a.387.387 0 01-.054.038c-.171.069-.344.137-.51.216a2.658 2.658 0 01-.275.115 1.161 1.161 0 00-.176.084c-.056.03-.115.058-.171.087a2.488 2.488 0 01-.237.138 1.149 1.149 0 00-.247.114 1.182 1.182 0 01-.146.084 1.565 1.565 0 00-.286.143c-.089.074-.207.1-.286.189-.007.008-.025.008-.036.013l-.387.211a.315.315 0 00-.044.026.3.3 0 01-.145.087.513.513 0 00-.138.091c-.008 0-.015.018-.021.016-.056-.013-.081.033-.115.061a.581.581 0 01-.061.051 2.292 2.292 0 00-.207.138 1.44 1.44 0 01-.267.165.641.641 0 00-.138.1 1.19 1.19 0 01-.188.153 1.85 1.85 0 00-.388.309 1.011 1.011 0 01-.1.082c-.1.081-.2.16-.3.242a1.346 1.346 0 01-.224.2c-.021.011-.031.041-.049.063a.28.28 0 01-.061.071c-.168.1-.26.276-.43.375-.01.053-.071.058-.1.1a.877.877 0 01-.089.117c-.138.153-.29.306-.433.461a1.139 1.139 0 00-.169.207.972.972 0 01-.142.184 2.786 2.786 0 00-.229.275c-.061.089-.137.166-.194.255s-.127.161-.183.245a1.605 1.605 0 00-.146.216.583.583 0 01-.165.224c-.1.189-.225.36-.326.551a.725.725 0 01-.048.076.377.377 0 00-.058.087.7.7 0 01-.147.262 1.8 1.8 0 00-.181.313 1.129 1.129 0 01-.188.326v.013c-.015.12-.117.2-.138.318-.007.035-.044.058-.058.1a3.724 3.724 0 01-.165.392.9.9 0 00-.069.138c-.02.056-.043.112-.068.166a1.193 1.193 0 00-.079.174 1.08 1.08 0 01-.089.244.386.386 0 00-.026.084.835.835 0 01-.11.262.253.253 0 00-.03.043 2.277 2.277 0 01-.114.288c-.013.028-.033.053-.025.086s-.018.068-.028.1 0 .074-.013.107a1.233 1.233 0 00-.076.178c-.01.061-.067.114-.076.175s-.072.11-.076.179a.071.071 0 01-.028.054c-.058.026-.054.074-.074.123a1.479 1.479 0 01-.074.234 1.063 1.063 0 00-.077.232.651.651 0 01-.03.114c-.043.084-.091.166-.138.25 0 .01-.011.033-.01.035.059.036 0 .069 0 .1a1.736 1.736 0 00-.031.224.273.273 0 01-.043.138c-.025.048-.074.023-.112.026s-.031.018-.04.041a.457.457 0 00-.053.242c-.043.051-.015.117-.031.17a1.08 1.08 0 00-.054.324c0 .021-.015.041-.016.063 0 .066-.051.123-.013.2a.112.112 0 01-.018.117.233.233 0 00-.033.11.593.593 0 01-.031.16c-.021.049 0 .11-.028.17a.754.754 0 000 .193 1.76 1.76 0 01-.026.2c-.01.138-.018.276-.028.4l-.013.036c0 .015-.013.041-.008.046.04.035.015.079.021.117a2.831 2.831 0 01-.028.392v.681a.462.462 0 00.025.24.067.067 0 010 .066c-.043.038-.025.086-.025.128a4.413 4.413 0 00.021.532c.021.217 0 .436 0 .653a.167.167 0 010 .081.248.248 0 000 .23c.013.025.028.063.016.081a.33.33 0 00-.013.174c0 .061-.023.127.025.184a.05.05 0 010 .053c-.039.035-.021.077-.023.117a.96.96 0 00.053.367 1.013 1.013 0 01.031.171c.007.043-.02.092.026.13 0 0 0 .031-.01.035a.24.24 0 01-.112.028c-.033 0-.044-.046-.046-.087a1.354 1.354 0 00-.074-.359c0-.016-.013-.041-.007-.051.039-.046-.011-.086-.008-.128 0-.02-.018-.041-.02-.061-.012-.1-.018-.2-.03-.295 0-.016-.013-.031-.016-.049-.013-.086-.064-.174-.036-.26s-.028-.179 0-.275c-.079-.1-.035-.224-.081-.328-.018-.039 0-.092 0-.138a1.338 1.338 0 00-.026-.138 1.077 1.077 0 01-.026-.127.891.891 0 00-.03-.309c-.016-.038.035-.069 0-.119s0-.1 0-.15.03-.12-.025-.171a.025.025 0 010-.026c.051-.044.025-.1.025-.156a.448.448 0 00-.015-.175c-.018-.044.015-.109.016-.163v-.265a.212.212 0 010-.079c.039-.092.035-.2.074-.29a.12.12 0 00-.036-.138.52.52 0 01-.072-.247c.008-.033.033-.059.03-.1s-.018-.071.016-.1-.041-.059-.018-.1a.039.039 0 01.013-.036c.015-.008 0-.03-.008-.039s-.03-.028 0-.061a.392.392 0 00.059-.267c-.013-.109.028-.219-.026-.324 0-.006 0-.028.013-.035.059-.044.048-.1.03-.161a.078.078 0 010-.039.5.5 0 00-.008-.275.088.088 0 01.013-.087.355.355 0 00.064-.226c0-.015.013-.031.016-.048a.492.492 0 00.039-.206.256.256 0 01.018-.171.291.291 0 00.026-.158.692.692 0 01.051-.257.447.447 0 00.064-.267.274.274 0 01.053-.215.348.348 0 00.023-.109 1.711 1.711 0 00.068-.275.067.067 0 01.016-.035.16.16 0 00.03-.1.122.122 0 01.013-.064 1.166 1.166 0 00.107-.3c.013-.091.082-.166.074-.262.054-.051.011-.128.053-.187.071-.1.076-.227.138-.333a.7.7 0 00.038-.151 1.382 1.382 0 00.053-.16.633.633 0 01.071-.193c.035-.066.086-.122.12-.188a.319.319 0 00.059-.184.208.208 0 01.038-.12 1.562 1.562 0 00.1-.235c.021-.046.018-.1.069-.138a.205.205 0 00.061-.15.31.31 0 01.066-.184c.046-.069.079-.137.122-.214.015-.026.033-.051.048-.077a.761.761 0 00.1-.168 1.05 1.05 0 01.092-.211c.041-.076.089-.15.138-.225.023-.038.069-.068.074-.107.01-.073.066-.114.094-.171s.056-.115.091-.171c.049-.082.1-.161.156-.242a.7.7 0 00.145-.247c0-.018.028-.033.043-.051a.752.752 0 00.138-.176c.048-.13.183-.194.219-.328.084-.069.1-.189.2-.252l.008-.01c-.015-.064.04-.087.072-.123a.594.594 0 01.145-.163.264.264 0 00.114-.119.525.525 0 01.164-.209.56.56 0 00.117-.189c.035-.077.031-.077.137-.153a1.452 1.452 0 00.166-.137 2.766 2.766 0 00.2-.2c.058-.066.158-.089.186-.183.077 0 .066-.087.117-.119.12-.079.176-.219.285-.311.028-.091.107-.138.17-.194.109-.1.262-.153.309-.311l.01-.01a.8.8 0 00.262-.257c.02-.026.043-.059.069-.067a.214.214 0 00.137-.114c.064-.123.186-.181.276-.268a2.838 2.838 0 01.239-.191 3.38 3.38 0 00.245-.217c.016-.015.031-.04.051-.048a.7.7 0 00.232-.179c.074-.069.181-.1.244-.186a.491.491 0 01.086-.059c.028-.023.008-.025.012-.038s-.021 0-.03 0a.5.5 0 00-.077.048 2.149 2.149 0 01-.225.16 1.5 1.5 0 00-.375.276.453.453 0 01-.086.063c-.119.076-.23.163-.344.25-.072.054-.137.125-.2.178a3.025 3.025 0 00-.359.306.388.388 0 01-.059.058 5.546 5.546 0 00-.467.385c-.069.059-.137.138-.239.128-.041.045-.117.026-.145.087-.02.041-.071.044-.094.084s-.082.013-.125.023c-.013 0-.03 0-.038.01-.054.054-.138.054-.188.11s-.094.033-.128.067a1.159 1.159 0 01-.169.008c-.089-.038-.091-.04-.155.035a.852.852 0 01-.081.105c-.039.033-.033.11-.105.109a.884.884 0 01-.087.147.285.285 0 00-.086.155.215.215 0 01-.092.16c-.066.059-.1.146-.186.186-.015 0-.025.026-.035.041a.631.631 0 01-.286.253.349.349 0 00-.1.068c-.039.031-.069.082-.112.1-.1.04-.1.137-.138.211a.611.611 0 01-.051.1 2.687 2.687 0 00-.253.423.767.767 0 01-.214.257c-.033.03-.071.048-.082.091-.025.087-.1.127-.158.183a.429.429 0 01-.077.051l-.03.01v-.036c.031-.043.021-.107.077-.138.015-.008.02-.038.028-.056a.759.759 0 01.053-.1 2.185 2.185 0 01.168-.222 3.005 3.005 0 01.324-.413l.013-.021a1.376 1.376 0 01.276-.375c.012-.011.03-.026.033-.041a.661.661 0 01.191-.3 1.177 1.177 0 00.214-.293.171.171 0 01.074-.082.255.255 0 00.138-.188v-.03c0-.008-.03 0-.038.008a1 1 0 01-.184.16c-.021.011-.03.043-.044.064a1.363 1.363 0 01-.115.173c-.1.119-.207.232-.316.344a.123.123 0 00-.043.109.088.088 0 01-.035.084c-.043.038-.074.094-.12.113s-.051.094-.094.13a.457.457 0 00-.123.2.342.342 0 01-.094.155 1.71 1.71 0 00-.227.3 1.533 1.533 0 00-.128.225.694.694 0 00-.127.239c-.053.026-.04.091-.071.124a2.876 2.876 0 00-.286.439.656.656 0 00-.064.153.517.517 0 01-.1.2 1.109 1.109 0 00-.122.225.685.685 0 01-.091.138.629.629 0 00-.074.122c-.02.035-.043.068-.061.1l-.138.252c-.012.026 0 .064-.016.089a4.28 4.28 0 01-.155.242.461.461 0 00-.025.059 1.481 1.481 0 01-.212.372 1.731 1.731 0 00-.094.212.417.417 0 01-.15.285.043.043 0 00-.016.033c.013.068-.039.1-.074.137s-.066.046-.067.1a1.329 1.329 0 01-.138.331c-.035.048-.072.11-.048.155a.086.086 0 01-.008.09c-.03.053-.031.124-.094.158-.011 0-.013.031-.016.048a.218.218 0 010 .081.714.714 0 00-.054.2.5.5 0 01-.035.138c-.025.049-.066.094-.086.145a.718.718 0 00-.03.168 1.8 1.8 0 01-.015.188 1.145 1.145 0 01-.082.176v.013c.008.1-.077.179-.062.275-.069.076-.049.17-.049.258a.253.253 0 01-.043.2.157.157 0 00-.013.049.542.542 0 00-.016.09 1.16 1.16 0 000 .214c0 .026.013.039 0 .069a.963.963 0 00-.091.212.921.921 0 000 .166.818.818 0 00-.025.153c.01.11-.041.214-.031.323a.027.027 0 01-.01.025 2.4 2.4 0 00-.1.55.2.2 0 00.01.138c.046.058-.03.087-.015.138s-.02.084-.023.127 0 .1 0 .153v.013c-.041.046-.013.109-.033.155a.458.458 0 00-.025.156.075.075 0 010 .038.2.2 0 00-.048.146c.01.048-.025.091-.013.138s.025.072.01.09c-.038.051-.02.105-.025.158a.53.53 0 01-.012.161.444.444 0 00-.015.161v.194a.7.7 0 000 .395v.053c-.064.053.025.1 0 .148a.188.188 0 00-.025.151.279.279 0 01.021.137v.571a.16.16 0 00.012.077.274.274 0 01.046.178.435.435 0 010 .173 1.462 1.462 0 000 .318c0 .043-.016.094 0 .123.036.053 0 .11.028.156a.51.51 0 01.026.171c.008.074.023.148.038.221a1.96 1.96 0 01.067.291 1.121 1.121 0 00.058.352c.02.046-.01.1.026.156a.432.432 0 01.048.176c.016.084.072.158.086.242.036.232.13.449.176.68.011.061.039.122.053.186s.044.12.056.186.066.115.054.186c.074.166.114.344.179.51s.117.323.179.482.122.329.2.489c.039.082.079.163.11.247a4.337 4.337 0 00.222.518 1.561 1.561 0 00.138.29 3.61 3.61 0 00.253.535 4.051 4.051 0 00.214.4c.018.035.031.072.051.105.084.137.176.275.252.425s.194.318.29.477c.069.115.16.221.219.341a5.379 5.379 0 00.3.457c.1.16.235.3.336.461s.247.332.375.5c.089.115.183.234.275.347a4.971 4.971 0 01.362.433c.063.086.15.156.217.242a4.074 4.074 0 00.352.384c.311.3.6.624.931.907.161.138.316.285.479.423.12.1.245.2.36.306.151.137.319.263.481.388.043.033.082.082.147.086.013 0 .023.018.035.03a.369.369 0 00.051.063c.1.069.193.136.29.206l.388.276c.2.137.4.275.612.4.082.049.161.11.242.16.178.109.36.206.54.309s.329.191.5.277c.216.113.436.224.655.332.081.04.165.074.247.114s.169.081.257.117c.138.058.283.125.423.189.064-.026.082.045.13.059.221.059.413.176.637.24.122.036.227.1.351.138.178.045.349.119.525.178a2.531 2.531 0 00.344.11c.225.043.439.137.663.181.127.028.25.076.378.1.061.01.119.03.178.043a1.674 1.674 0 01.191.046.925.925 0 00.275.058.527.527 0 01.1.025.6.6 0 01.109.01 1.738 1.738 0 00.3.072c.115.028.237.028.352.061a.657.657 0 00.212.026h.041c.044.049.1.016.156.025l.169.028a2.357 2.357 0 01.237.033 1.192 1.192 0 00.314.048c.082 0 .158.039.239.031.049.054.114.021.169.026a.431.431 0 00.194 0c.082-.041.161-.008.242-.023.11.067.242-.008.354.056a.041.041 0 00.028 0 .2.2 0 01.186 0 .963.963 0 00.168 0 .485.485 0 01.161.013.484.484 0 00.161.013h.137a.2.2 0 00.114-.028c.038.048.077 0 .117 0a.347.347 0 01.165 0 .284.284 0 00.138.021c.048 0 .1.023.138-.023a.346.346 0 00.044.016.1.1 0 00.053.008 1.348 1.348 0 01.436-.054.256.256 0 00.171-.025.067.067 0 01.066 0c.051.04.105.023.158.025s.128 0 .194 0c.025 0 .063.031.069.025.049-.049.107-.015.16-.025a.165.165 0 00.09-.018c.031-.018.071 0 .105-.01s.046-.054.081-.013.064-.038.094-.013a.1.1 0 00.12 0 .349.349 0 01.153-.03 2.163 2.163 0 00.253-.025 2.48 2.48 0 00.244-.053.4.4 0 00.2-.114.164.164 0 01.229-.031l.01.008a.116.116 0 00.063.018 1.342 1.342 0 00.281-.021 1.782 1.782 0 01.351-.033.2.2 0 00.069 0 1.911 1.911 0 01.359-.105c.138-.049.285-.072.426-.115a1.8 1.8 0 00.352-.125 1.357 1.357 0 01.212-.092c.041-.015.092-.021.138-.038a1.087 1.087 0 01.145-.049c.082-.016.153-.068.23-.082a1.168 1.168 0 00.329-.114.75.75 0 01.086-.03 1.48 1.48 0 00.248-.1 1.515 1.515 0 01.374-.174 2.255 2.255 0 00.38-.158c.086-.041.168-.092.252-.138.109-.049.217-.105.328-.155a.685.685 0 01.2-.054.879.879 0 00.4-.173 1.673 1.673 0 01.285-.161.283.283 0 00.094-.041c.025-.021.066-.023.094-.043a.977.977 0 01.145-.087 1.366 1.366 0 00.161-.082.351.351 0 00.089-.056 1.885 1.885 0 00.207-.248c.046-.072.12-.077.183-.112a.754.754 0 00.347-.1 1.789 1.789 0 00.176-.114 1.647 1.647 0 01.211-.064.747.747 0 00.324-.255.262.262 0 01.087-.057.708.708 0 00.221-.168.417.417 0 01.169-.137c.068-.033.081-.124.161-.138.035-.008.067-.046.1-.051a.1.1 0 00.084-.054.432.432 0 01.151-.114c.119 0 .178-.084.232-.174a.512.512 0 01.071-.123 1.314 1.314 0 01.237-.2 1.643 1.643 0 00.355-.275.213.213 0 01.161-.084.1.1 0 00.058-.026c.117-.1.229-.211.346-.313.026-.025.059-.036.086-.061a.453.453 0 00.059-.087.9.9 0 01.138-.166 2.29 2.29 0 00.26-.275c.036-.051.058-.11.1-.156.081-.1.168-.191.255-.283s.15-.153.227-.227c.051-.048.105-.094.161-.137a.447.447 0 00.138-.189.453.453 0 01.089-.138 1.085 1.085 0 00.227-.255.832.832 0 01.188-.242c.013-.01.031-.03.03-.043-.008-.053.035-.071.061-.1s.053-.051.077-.079a2.962 2.962 0 01.288-.369.518.518 0 00.077-.12 1.117 1.117 0 01.13-.253 1.653 1.653 0 00.153-.2c.046-.069.084-.137.137-.212a3.093 3.093 0 00.207-.385c.012-.031.026-.063.041-.094a1.073 1.073 0 01.082-.092.425.425 0 00.122-.2.883.883 0 01.089-.2c.028-.068.081-.125.109-.193s.066-.13.092-.2a.686.686 0 01.1-.209.324.324 0 00.074-.138.458.458 0 01.086-.138c.069-.1.2-.171.186-.324a.011.011 0 00.01-.01 1.4 1.4 0 01.15-.328.3.3 0 00.028-.084 1.313 1.313 0 01.077-.26c.048-.082.058-.179.1-.265s.067-.15.109-.219a1.71 1.71 0 01.155-.3.161.161 0 00.033-.1 1.256 1.256 0 01.061-.413c.025-.1.051-.2.071-.3s.061-.153.074-.234.072-.138.039-.186a.152.152 0 01.026-.181 1.223 1.223 0 00.178-.525 1.815 1.815 0 01.031-.211 1.067 1.067 0 01.051-.186c.03-.064.033-.138.056-.2a.816.816 0 00.054-.214c.008-.035.016-.068.026-.1s.008-.068.018-.1a3.939 3.939 0 00.092-.436 1.086 1.086 0 000-.179.339.339 0 01.04-.15c.039-.053.02-.1.015-.153v-.011a1.416 1.416 0 00.051-.285.529.529 0 01.025-.227c.018-.035-.01-.089.028-.125-.051-.066-.021-.138-.023-.212s-.025-.145.025-.212a.028.028 0 000-.023c-.035-.028 0-.049 0-.079a.5.5 0 00.035-.2.125.125 0 01.016-.105.119.119 0 00.008-.092c-.01-.049-.053-.1 0-.138-.046-.051 0-.105 0-.156-.028-.193.028-.358.018-.532zM16.583 1.604a.807.807 0 01-.24.058.239.239 0 00-.166.043.27.27 0 01-.207.04.426.426 0 00-.242.049.384.384 0 01-.222.036c-.043 0-.089-.018-.138.016a.32.32 0 01-.221.036c-.008 0-.016-.016-.021-.026a.025.025 0 01.008-.023.348.348 0 01.1-.031.522.522 0 00.217-.051.826.826 0 01.295-.059.4.4 0 00.191-.043c.053-.035.125 0 .178-.043.1.018.2-.035.295-.026a.156.156 0 00.109-.043c.043-.03.058 0 .077.02s.018.041-.015.051zm1.425-.194a.4.4 0 01-.1.053.226.226 0 01-.123 0c-.039-.016-.069.053-.1 0-.082.035-.174 0-.25.031s-.13 0-.183.025a.491.491 0 01-.169.025c-.084.008-.168.023-.25.033a.5.5 0 01-.069 0 .128.128 0 01-.041-.023c.008-.01.016-.026.031-.031a.487.487 0 01.1-.028.92.92 0 01.1 0 1.445 1.445 0 01.275-.028l.021-.013.155-.043c.193.02.38-.033.571-.026h.043a.008.008 0 01.008.008zm-6.94 2.118a1.7 1.7 0 01-.2.138c-.054.026-.089.094-.161.081a3.338 3.338 0 00-.362.2c-.076.053-.165.074-.24.127a.522.522 0 01-.245.112c-.015 0-.03.02-.041.033a.545.545 0 01-.25.169.289.289 0 00-.107.076c-.038.033-.068.087-.11.1s-.077.048-.114.059a.651.651 0 00-.26.181c-.03.035-.077.028-.117.054a1.3 1.3 0 00-.191.137.16.16 0 01-.138.046c-.051 0-.054 0-.028-.046a.174.174 0 01.069-.069.933.933 0 00.217-.151.62.62 0 01.222-.161 1.271 1.271 0 00.255-.158c.04-.02.063-.064.117-.056a.073.073 0 00.058-.028c.056-.082.166-.086.225-.163.02-.028.066-.039.1-.054h.038c.04-.043.066-.11.112-.127s.117 0 .164-.038.069-.026.082-.074c0-.02.071-.021.107-.033.008 0 .015-.012.021-.018a.85.85 0 01.314-.176.417.417 0 00.137-.059c.058-.051.138-.054.191-.11s.1.026.137-.025l.023.013zm11.624-1.506h-.041c-.035-.006-.082-.021-.128-.028s-.1.013-.138-.028c-.01-.008-.036 0-.054 0a.316.316 0 01-.189-.031.222.222 0 00-.1-.016.6.6 0 01-.3-.049.123.123 0 00-.091 0 .081.081 0 01-.109 0c-.043-.026-.109-.016-.148-.046s-.1.013-.137-.043h-.041a.408.408 0 01-.281-.033c-.044-.035-.072.033-.1 0s-.069-.015-.1-.016a.3.3 0 00-.12.011.164.164 0 01-.125 0 .69.69 0 00-.275-.067c-.018 0-.039-.021-.059-.023s-.068-.018-.063-.049.1-.086.12-.057c.048.056.086.028.13 0a.042.042 0 01.035 0c.03.021.041.066.1.028.018-.011.064.015.1.025a.17.17 0 01.048.018.806.806 0 01.069.063c.028-.045.082 0 .112-.031a.046.046 0 01.077 0h.013c.054 0 .1-.056.153-.025a.114.114 0 00.138 0c.094.04.212.01.285.105a.094.094 0 00.072.028c.063 0 .128-.025.183.026a1.4 1.4 0 00.138-.036.177.177 0 01.207.028.406.406 0 00.183.069.3.3 0 00.188 0 .154.154 0 01.155.023c.094-.02.132.036.158.112-.016.038-.016.044-.067.046zm1.618 5.085a1.529 1.529 0 01.285.073 3.69 3.69 0 01.4.155c.066-.025.077.067.138.059a.321.321 0 01.138.053.7.7 0 00.288.115.125.125 0 01.056.026c.039.026.079.071.122.076s.074.049.11.071a.771.771 0 00.115.059.733.733 0 01.163.076.931.931 0 01.145.091c.028.026.081.025.12.043.015 0 .026.025.04.038l-.043.016h-.021c-.028.01-.062.033-.086.025a.339.339 0 01-.077-.072c-.025-.026-.02-.035-.028-.033-.079.012-.115-.071-.176-.077s-.114-.071-.165-.112a1.324 1.324 0 00-.107-.079.079.079 0 00-.048 0c-.091.023-.094.023-.117-.061-.008-.031-.028-.043-.044-.026-.058.056-.11.018-.16 0a3.762 3.762 0 00-.63-.26c-.082-.025-.166-.046-.248-.074a.46.46 0 01-.13-.056.306.306 0 01-.059-.086.153.153 0 00.02-.038zm-1.338-.051a.391.391 0 01.168.031 1.392 1.392 0 00.334.1 1.814 1.814 0 00.184.059 1.974 1.974 0 01.518.128 2.528 2.528 0 00.288.112.632.632 0 00.194.066c.056 0 .071.049.115.061.074.021.138.057.217.081a.456.456 0 01.207.107c.074 0 .122.071.2.061.013 0 .033 0 .038.008.051.076.151.063.216.123s.138.061.206.1a3.545 3.545 0 01.464.262.233.233 0 00.128.056.12.12 0 01.071.035.3.3 0 00.137.082.686.686 0 01.276.186.524.524 0 00.176.114.869.869 0 01.24.158.171.171 0 00.064.044.511.511 0 01.118.084c.033.023.064.048.1.069s.079.021.081.077c0 .015.028.038.048.044a.464.464 0 01.181.137 1.483 1.483 0 00.138.109c.048.036.066.087.125.1a.077.077 0 01.048.048c.026.074.094.1.148.146s.105.084.156.127c.1.087.2.173.293.267a2.191 2.191 0 00.186.186 1.853 1.853 0 01.2.2c.038.039.089.064.12.113s.082.076.115.12a3.057 3.057 0 01.313.413c.028.059.1.1.137.15s.071.09.105.138a.848.848 0 00.053.074.812.812 0 01.2.306.816.816 0 00.153.214c.058.079.118.155.176.234a.763.763 0 01.058.115c.011.028.013.066.033.082.091.077.115.2.2.277.033.033.011.085.054.118s.038.074.053.114a1.529 1.529 0 00.117.217c.072.137.138.275.212.4a1.009 1.009 0 01.109.234c.021.079.066.15.086.229s.069.137.091.212a.788.788 0 01.051.16.181.181 0 00.013.049 1.677 1.677 0 01.156.449c.008.053.054.1.054.16s.043.1.059.155c.031.1.043.194.077.286a.867.867 0 00.03.086.54.54 0 01.059.214c0 .068.048.128 0 .2-.015.02.015.072.03.109a.479.479 0 01.051.2.255.255 0 00.039.138.26.26 0 01.041.191.307.307 0 00.035.166.205.205 0 01.021.061.311.311 0 00.011.107c.01.025-.02.057-.015.092.023.138.035.291.068.433a.233.233 0 01.018.089 2.005 2.005 0 00.033.433.466.466 0 010 .2.125.125 0 00.016.13c.012.013.008.043.008.064a.382.382 0 000 .173.839.839 0 010 .181v.374a.29.29 0 01-.035.166.31.31 0 00-.023.076l-.018.038c-.012-.013-.035-.026-.035-.04a.347.347 0 010-.165.219.219 0 00.018-.117 1.427 1.427 0 00-.021-.434c.069-.092-.025-.176-.008-.27a1.278 1.278 0 000-.275 1.238 1.238 0 00-.028-.2c-.01-.059.023-.127-.026-.184-.01-.013 0-.044 0-.069a.765.765 0 00-.051-.285.07.07 0 010-.026c-.01-.117-.02-.232-.028-.349a.258.258 0 00-.026-.115c-.018-.033.015-.081-.021-.115a.039.039 0 01-.008-.023c.031-.179-.092-.334-.084-.509-.061-.09-.04-.2-.061-.3a1.248 1.248 0 00-.087-.3c-.026-.053-.008-.1-.031-.155-.053-.12-.086-.252-.137-.374-.016-.039-.011-.077-.025-.115-.082-.234-.155-.474-.25-.7a1.759 1.759 0 01-.137-.347c-.069-.041-.059-.125-.1-.183a.737.737 0 01-.082-.189.634.634 0 00-.077-.138.247.247 0 01-.053-.138.144.144 0 00-.028-.084 1.977 1.977 0 01-.275-.456 1.287 1.287 0 00-.138-.234c-.084-.1-.11-.227-.193-.324s-.155-.245-.253-.354a.779.779 0 01-.127-.184c-.069-.148-.193-.26-.268-.4a.346.346 0 01-.145-.146 5.3 5.3 0 00-.421-.48c-.072-.079-.138-.165-.221-.24-.054-.053-.138-.089-.17-.15s-.112-.1-.163-.153a1.073 1.073 0 00-.168-.166c-.064-.053-.12-.114-.179-.169s-.122-.122-.189-.176a1.971 1.971 0 00-.385-.306.83.83 0 01-.156-.127 3.943 3.943 0 00-.425-.29c-.087-.056-.166-.138-.255-.191-.048-.031-.089-.076-.138-.105s-.146-.074-.216-.117c-.258-.158-.536-.275-.8-.413a2.662 2.662 0 00-.151-.076.035.035 0 01-.025-.007c-.036-.02-.026-.092-.087-.084s-.084-.025-.123-.038-.076-.044-.117-.056a4.479 4.479 0 01-.513-.209c-.138 0-.234-.115-.36-.137s-.216-.119-.342-.122c-.036-.062-.1-.048-.156-.058s-.087-.056-.145-.054c-.023 0-.048-.025-.072-.025-.072 0-.119-.071-.2-.061a.67.67 0 01-.2-.025 1.178 1.178 0 01-.235-.069c-.062-.023-.123 0-.184-.028a.292.292 0 00-.178-.043c-.031 0-.066-.021-.1-.025a.956.956 0 00-.225-.031.174.174 0 01-.086-.026s-.008-.02 0-.025c.039-.069.107-.059.171-.059a1.64 1.64 0 01.285.054 1.484 1.484 0 00.291.064zm-2.085-.688c.036.063.086.046.137.021.12.066.26-.011.38.056a.777.777 0 01.295.031 1.545 1.545 0 01.413.081c.145-.02.275.071.423.058a.337.337 0 01.112.026c.013 0 .043 0 .023.023s-.031.025-.036.021c-.051-.035-.109-.015-.16-.016a.286.286 0 01-.179-.04.058.058 0 00-.035-.016c-.11.021-.214-.035-.323-.03a.735.735 0 01-.326-.051.054.054 0 00-.039 0 1.982 1.982 0 01-.462-.035c-.155-.021-.308-.016-.462-.025a.439.439 0 01-.114-.026c-.035-.013-.068.048-.1 0h-.015c-.076.041-.151-.008-.229 0s-.166 0-.25 0h-.25a.545.545 0 00-.242.023.226.226 0 01-.123 0 .211.211 0 01-.067-.038.271.271 0 01.061-.043c.035-.011.071-.023.107-.031.056 0 .092-.01.122.026a.048.048 0 00.051 0c.039-.043.087-.02.13-.028a.734.734 0 01.087-.025c.023 0 .046.02.071.025a.083.083 0 00.056 0c.109-.069.217.013.324 0 .025.036.051 0 .076 0 .059 0 .128-.026.184.026h.013c.053.007.1-.021.16 0a.156.156 0 00.158-.018.04.04 0 01.036 0zm-2.582-1.516c.041-.038 0-.105.036-.122a.373.373 0 01.148-.01h.39c.035 0 .072.013.1-.02a.065.065 0 01.064 0c.069.051.138.008.2 0 .036 0 .069-.03.117 0a.117.117 0 00.137-.035c.018-.021.067-.016.1-.016a.063.063 0 01.071.038.108.108 0 00.15.028l.012-.01c.016-.013.066-.056.054.021v.015l.031.016a.076.076 0 00.023-.04c0-.01-.021-.018-.025-.03a.052.052 0 01.016-.048h.025a.238.238 0 01.068.035v.045c-.082 0-.02.039 0 .049a.079.079 0 00.051.008c.036 0 .071-.008.105-.011a.084.084 0 00-.091-.044l-.018-.015.02-.02c.089-.043.168-.124.275-.049a.083.083 0 00.056 0 .324.324 0 01.181.031.238.238 0 00.1.023c.049-.006.066.013.059.061a.089.089 0 00.023.059.236.236 0 00.056.031l-.051.03.016.02c.021.023.011.043-.01.056s-.039.026-.044.021c-.056-.049-.123-.016-.184-.026a.273.273 0 00-.081-.016c-.025 0-.044.033-.067.036a.369.369 0 01-.1 0c-.072-.012-.138-.077-.222-.013-.137.01-.275.023-.413.026-.059 0-.119-.036-.183-.026s-.15.02-.224.028a.322.322 0 01-.117-.023c-.04-.012-.087-.056-.145-.01-.02.016-.076 0-.117-.01s-.11-.053-.137.035h-.138c-.013 0-.021-.013-.035-.016-.112-.035-.112-.035-.212.033l-.033.021a.039.039 0 01-.056-.048c.008-.039-.008-.089.016-.109zm-1.9 32.465c-.049 0-.1-.046-.156-.058a1.523 1.523 0 00-.156-.025.189.189 0 01-.072-.025.444.444 0 00-.2-.053 2.934 2.934 0 01-.6-.115c-.021-.069-.071.015-.109-.018a.163.163 0 00-.109-.035.277.277 0 01-.138-.048c-.043-.018-.086-.053-.137-.036s-.072-.066-.132-.059a.2.2 0 01-.137-.018 1.735 1.735 0 00-.237-.1c-.008 0-.015-.016-.02-.015-.123.018-.212-.072-.319-.1a.921.921 0 01-.26-.114c-.039-.026-.109-.008-.138-.063-.02.018-.038.045-.068.016s-.114.008-.165-.048a.356.356 0 00-.15-.069 1.074 1.074 0 01-.323-.16c-.043-.035-.1 0-.137-.043-.021-.025-.076-.018-.11-.035a1.584 1.584 0 00-.255-.122 2.187 2.187 0 01-.276-.138 1.785 1.785 0 01-.2-.087 2.765 2.765 0 01-.324-.189.5.5 0 00-.176-.084 1.108 1.108 0 01-.275-.138c-.115-.059-.219-.136-.341-.186-.048-.021-.074-.092-.11-.138 0 0 0-.018.013-.021a.047.047 0 01.026 0c.086.091.216.118.3.211a.436.436 0 00.112.061.341.341 0 00.212.064c.03 0 .061.036.1.025.054.072.168.028.219.109a.3.3 0 01.186.059.928.928 0 00.178.105 1.22 1.22 0 01.186.063 2.94 2.94 0 00.332.138.607.607 0 01.089.053 2.453 2.453 0 00.332.138.631.631 0 01.081.04c.023.013.048.041.067.038a.335.335 0 01.219.079.045.045 0 00.038.008c.048-.013.091-.035.1.043a.108.108 0 00.087.011c.051-.036.089-.036.128.013a.009.009 0 00.01.008c.1 0 .166.076.253.089.064.01.058.056.041.072-.049.051-.01.076.023.1a.345.345 0 00.1.03h.028a.508.508 0 00.212.1 1.092 1.092 0 00.247.074c.043.058.12-.01.161.051a.96.96 0 01.168.035 3.575 3.575 0 01.406.092.177.177 0 00.064.013.266.266 0 01.153.038c.016 0 .031.018.048.018a2.767 2.767 0 01.342.086.069.069 0 01.044.023.331.331 0 00.245.115c.082.015.158.049.239.068a.183.183 0 00.079-.007.2.2 0 01.158.015.045.045 0 00.025.008l.336.028a.222.222 0 01.1.015c.021.015.054-.015.079-.008a1.02 1.02 0 00.1.036.979.979 0 00.138.012.43.43 0 01.079.011c.011 0 .021.018.031.028l-.031.016-.094.036c-.076-.056-.16-.02-.23-.038-.117-.031-.24 0-.35-.031a1.69 1.69 0 00-.385-.054zm-3.089-2.023v-.023c0-.006.013 0 .018 0 .064.036.127.074.193.107a.506.506 0 00.122.04c.153.031.285.117.436.156a.184.184 0 00.061.018.364.364 0 01.156.03l.036.012a.088.088 0 01-.033.015h-.112c-.1-.021-.225-.025-.352-.049-.082-.015-.161-.04-.239-.061a.488.488 0 01-.283-.244zm10.636 1.832a.888.888 0 01-.346.138h-.025c-.038.076-.122.044-.181.074a.867.867 0 01-.194.033c-.084.02-.166.046-.25.071l-.035.013c-.112.008-.225.013-.337.03s-.214.039-.319.066c-.069.018-.137.046-.207.066a.27.27 0 01-.046-.011l-.036-.012c-.041.048-.1.026-.138.026a.334.334 0 00-.169.03.317.317 0 01-.169.028.7.7 0 01-.166 0c-.051-.012-.1.048-.145 0-.109.054-.224.013-.336.031a.34.34 0 01-.173 0 4.119 4.119 0 01-.711.028c-.076 0-.148.03-.224.035a.129.129 0 01-.049 0 .922.922 0 00-.166 0h-.222c-.074 0-.127-.046-.2-.03-.046.012-.1-.02-.137.028a.045.045 0 01-.041 0 .492.492 0 00-.267-.025c-.1 0-.2-.02-.295-.028a1.864 1.864 0 01-.3 0 1.394 1.394 0 01-.4-.074c-.021-.012-.061 0-.092 0a.757.757 0 00-.081.025c-.061-.011-.112-.026-.165-.035a.639.639 0 01-.137-.023.687.687 0 00-.252-.028c-.035 0-.068-.051-.1 0-.01-.008-.018-.023-.031-.026a.448.448 0 01-.153-.1c.064-.044.117.043.178.016.031.043.074.026.115.025a.506.506 0 01.128.026c.049.01.1.067.158 0h.025c.079.061.155 0 .225-.016.038-.01.064-.025.1 0a.089.089 0 00.051.008c.033 0 .084-.035.094-.021.041.041.063 0 .094 0a.1.1 0 01.067 0c.033.021.053.036.094 0 .018-.013.074.013.109.026s.049.03.058.023c.051-.035.1.025.155-.011a.124.124 0 01.115-.008.227.227 0 00.138.023h.181a.451.451 0 01.155.026c.049.015.1-.035.16 0a.354.354 0 00.166 0 .392.392 0 00.184-.025.168.168 0 01.138 0 .077.077 0 00.11-.01l.007-.008c.025-.028.053-.028.066 0 .028.061.076.013.084 0 .048-.062.112-.054.174-.054h.211a.2.2 0 01.1.013c.016.008.008.059 0 .09s.018.035.044.035h.487a1.2 1.2 0 00.128-.026.852.852 0 01.224-.03.41.41 0 00.216-.051h.026c.04.064.084.008.115 0a.507.507 0 01.171-.025.253.253 0 00.115-.023.128.128 0 01.128 0c.086-.026.178-.016.263-.039a.287.287 0 01.23.013c.058.033.107-.025.16 0a.5.5 0 01.237-.028.2.2 0 00.077-.016.323.323 0 01.224-.067c.012 0 .028-.021.043-.03s.03-.025.044-.023a1.089 1.089 0 00.38-.1c.011 0 .025-.018.035-.016.114.015.209-.082.324-.056l.035.015a.149.149 0 00-.044.011zm6.624-4.733c-.056-.012-.059.039-.087.059a.85.85 0 01-.087.056.2.2 0 00-.031.021.544.544 0 01-.115.13c-.039.025-.051.092-.122.077-.02 0-.048.056-.077.071s-.072.076-.127.094a1.231 1.231 0 00-.16.082c-.051.025-.1.044-.153.071-.023.012-.043.02-.053-.008s.013-.031.038-.04a.231.231 0 00.1-.066.72.72 0 01.216-.155c.018-.008.051-.018.054-.031.012-.064.067-.079.109-.105a3 3 0 00.339-.257c.043-.038.12-.033.138-.105a.253.253 0 01.077.013c-.018.038-.041.094-.051.09zm3.413-4.348a.421.421 0 01-.115.176.19.19 0 00-.03.058 5.718 5.718 0 01-.346.566c-.058.087-.117.173-.174.262a1.187 1.187 0 00-.137.234.171.171 0 01-.056.058c-.112.087-.138.239-.239.333 0 .057-.039.085-.091.109a.735.735 0 00-.12.082c-.031.025-.077.048-.089.081a1.525 1.525 0 01-.173.249 2.155 2.155 0 01-.153.188c-.138.176-.318.321-.462.492-.2.234-.425.433-.635.653-.025.028-.067.043-.094.071-.056.059-.11.119-.163.179a2.183 2.183 0 01-.314.276.36.36 0 00-.062.061c-.058.066-.1.16-.2.165-.007 0-.015.01-.021.016-.074.066-.15.13-.224.2a.986.986 0 01-.138.11c-.036.023-.089.036-.1.094a.078.078 0 01-.046.048c-.12.015-.191.105-.276.17a1.158 1.158 0 00-.253.2.081.081 0 01-.043.03.5.5 0 00-.237.138.163.163 0 01-.043.03.548.548 0 00-.255.184c-.008.008-.025 0-.038.011a1.621 1.621 0 00-.151.069c-.048.026-.1.061-.146.086a.744.744 0 01-.153.066c-.051.013-.076.069-.138.069-.036 0-.069.059-.109.069a4.477 4.477 0 00-.428.211.224.224 0 00-.051.015.22.22 0 00-.084.028c-.13.122-.311.128-.457.211a.818.818 0 01-.15.041.43.43 0 00-.183.1.2.2 0 01-.077.048.825.825 0 01-.119.018c-.039.007-.053.056-.1.058a.46.46 0 00-.211.057 1.04 1.04 0 01-.232.077 1.289 1.289 0 01-.225.1 1.729 1.729 0 01-.2.046.38.38 0 00-.283.1.283.283 0 01-.2.059.258.258 0 00-.151.043c-.036.033-.041-.026-.066-.01a.183.183 0 01-.058.026c-.061.011-.122.016-.183.03s-.1.063-.16.054c-.072.068-.179.033-.257.084-.074-.043-.138 0-.2.026a.184.184 0 01-.079-.008c-.008 0-.013-.01-.02-.016-.056.066-.138.043-.209.069a.982.982 0 00-.212.064c-.058.035-.15.013-.219.035a3.2 3.2 0 00-.372.081.153.153 0 01-.067 0 .441.441 0 00-.247.044.114.114 0 01-.066.01h-.168a.332.332 0 00-.186.018c-.061.038-.127-.015-.183.035-.016.015-.054 0-.081 0a.748.748 0 00-.3.026c-.02.01-.048 0-.069 0s-.064-.039-.105 0-.072 0-.11 0h-.131c-.041 0-.071.025-.119 0s-.092.018-.137.021a1.305 1.305 0 01-.138 0c-.044 0-.076.025-.115.026s-.082-.03-.092-.018c-.043.048-.064-.01-.1-.008s-.072-.008-.1.026c-.061-.053-.138-.018-.2-.026a1.908 1.908 0 00-.194 0c-.064 0-.046 0-.138.056a.378.378 0 01-.275.016c-.046-.012-.081-.026-.125 0a.149.149 0 01-.066.01h-.362a.329.329 0 01-.137-.03.569.569 0 00-.156-.028c-.03-.008-.044-.015-.072.008a.238.238 0 01-.2.011 1.226 1.226 0 00-.2-.046.259.259 0 01-.086-.026.733.733 0 00-.212-.056c-.059 0-.12.018-.174-.016s-.1 0-.156-.033-.117-.007-.176 0a.323.323 0 01-.184-.03c-.051-.03-.1-.016-.155-.028a1.516 1.516 0 01-.258-.049.393.393 0 00-.138 0c-.058 0-.122.018-.16-.046-.084 0-.16-.061-.239-.059a1.425 1.425 0 01-.309-.069c-.007 0-.013-.018-.018-.018-.127.02-.221-.084-.341-.091-.021-.007-.041-.013-.061-.021s-.071 0-.077-.01c-.028-.054-.1-.028-.125-.069-.051-.074-.138-.072-.2-.086s-.161-.076-.255-.059a.446.446 0 00-.253-.1 1.926 1.926 0 01-.194-.066 1.339 1.339 0 01-.337-.13c-.155-.01-.275-.128-.425-.153-.077-.011-.138-.079-.221-.1-.046-.015-.051-.016-.021-.051a.126.126 0 00.015-.035c.016-.048.046-.1.091-.109a.269.269 0 01.156.051.3.3 0 00.173.057c.036 0 .077.026.112.023s.071.035.105.053a2.045 2.045 0 00.214.087c.087.035.189.035.26.11a.15.15 0 01.138.058c.051-.013.094.018.137.028.107.021.207.064.314.084.056.071.166.035.217.115a.058.058 0 00.046.023c.138 0 .257.069.395.058.061 0 .11.044.168.063a.756.756 0 00.232.048.4.4 0 01.086.026 1.215 1.215 0 00.155.028.307.307 0 01.158.026.039.039 0 00.038 0c.031-.043.077-.02.115-.025a.775.775 0 00.138 0c.054-.01.1.028.156.023a.4.4 0 01.151 0 .616.616 0 00.268.023c.051 0 .1.076.146.008.051.021.091-.013.138-.023.016 0 .036.018.054.015.069-.008.145.026.212-.025.015-.011.044 0 .067 0h.321a.806.806 0 01.3.051.164.164 0 00.039 0 2.64 2.64 0 01.323.031.461.461 0 01.174.049.079.079 0 00.1 0c.025-.021.056-.053.089 0h.026c.036 0 .087.016.109 0 .044-.039.069.016.105 0s.068 0 .1-.028.058.01.086.025a.139.139 0 00.117.006c.061-.021.138-.074.2-.015a1.113 1.113 0 01.3-.02c.008 0 .016-.016.025-.025.035-.048.033-.046.056 0a.052.052 0 00.038.023.687.687 0 00.2-.02.16.16 0 01.072-.016.659.659 0 01.077-.137.188.188 0 00-.061.01c-.051.021-.079-.03-.12-.008l-.038-.036.041-.021a.282.282 0 01.2-.049c.033 0 .054-.026.087-.015a.664.664 0 01.054-.041.248.248 0 01-.091-.025c-.015-.007-.044-.012-.053 0-.056.057-.137 0-.191.043h-.02c-.035-.007-.054-.057-.11-.023-.035.021-.092 0-.138 0s-.091-.02-.138.021a.252.252 0 00-.054-.018 1.161 1.161 0 01-.151 0c-.046-.008-.1-.059-.128-.048-.072.023-.151-.026-.217.038-.039.039-.039-.015-.058-.036s-.015-.026.013-.038a.217.217 0 01.1-.026c.035 0 .071.011.1-.021.01-.01.048.008.072.011a.278.278 0 00.074 0 1.009 1.009 0 01.288-.046.333.333 0 01.051.013c.018 0 .077.025.1.013a.855.855 0 01.281-.026 2.1 2.1 0 01.393-.026c.076-.049.16-.02.24-.03.056 0 .112-.021.168-.026a.7.7 0 00.168 0c.137-.044.288-.028.426-.077.064-.021.138-.008.211-.026a2.349 2.349 0 00.369-.087.109.109 0 01.056 0 .822.822 0 00.253-.03.4.4 0 00.087-.026c.03-.007.059-.008.089-.016s.046.023.072-.008.066 0 .094 0a1.749 1.749 0 00.188-.053.4.4 0 01.225-.058c.056 0 .1-.048.156-.028a2.106 2.106 0 01.372-.114c.123-.035.245-.082.365-.122a.462.462 0 01.114-.03c.1 0 .176-.086.275-.071a.027.027 0 00.025-.01.519.519 0 01.346-.074.239.239 0 00.191-.043.075.075 0 01.064-.01.533.533 0 00.313 0 .241.241 0 01.1.016c.071.018.145.012.191.082a.044.044 0 00.028-.01l.077-.048a.319.319 0 01.077-.048 1.1 1.1 0 00.329-.216.758.758 0 01.25-.138 1.589 1.589 0 00.188-.082.6.6 0 01.239-.064c.049 0 .1-.04.148-.043a.476.476 0 00.275-.158c.081-.069.171-.125.257-.186.046-.035.089-.076.137-.11a1.037 1.037 0 01.26-.112h.039c.054-.038.079-.115.165-.107a.34.34 0 00.173-.054h.025c.007 0 0 .015 0 .018-.056.044-.089.114-.163.138a.286.286 0 00-.071.063.161.161 0 00-.025.039.244.244 0 00.056-.018 2.63 2.63 0 01.349-.235.156.156 0 00.049-.049c.021-.028 0-.021-.02-.026l-.021-.012s.013-.015.02-.015a.312.312 0 00.249-.11.459.459 0 01.184-.12.659.659 0 00.225-.158c.091-.081.174-.168.257-.255a.974.974 0 01.211-.165.155.155 0 00.061-.053.612.612 0 01.237-.2c.013-.01.036-.015.043-.026.067-.138.2-.178.313-.25.015-.01.038-.012.046-.023.061-.084.165-.1.237-.171a.078.078 0 01.036-.015c.048-.016.038-.082.094-.1a.411.411 0 00.128-.1 1.312 1.312 0 00.109-.107 1.477 1.477 0 01.145-.12 2.209 2.209 0 00.458-.444 3 3 0 00.487-.448 8.487 8.487 0 00.652-1l.074-.12h.013a.437.437 0 00.063-.03.6.6 0 00.077-.064.753.753 0 00.066-.082c.048-.066.092-.138.138-.2l.117-.1a.258.258 0 00.053-.068h.117c-.03.056-.058.114-.082.171zm-17.175 6.384c.138.059.311.025.462.1a.2.2 0 00.107.01.559.559 0 01.221.04c.025.008.058.023.076.015a.168.168 0 01.165.023c.046.025.105.031.158.054.012 0 .031.01.036 0 .054-.058.105-.013.16 0a1.11 1.11 0 00.311.054.2.2 0 00.076-.018.081.081 0 01.087.008.273.273 0 00.151.039 1.768 1.768 0 01.346.069.258.258 0 00.051.013.3.3 0 00.115-.023c.023-.008.059.035.1.023l.046-.02h.046a.072.072 0 010 .053c-.015.03-.031-.008-.036 0-.054.046-.138 0-.184.049-.048-.053-.1 0-.138 0-.072 0-.145.013-.219.013a1.562 1.562 0 01-.216-.015.315.315 0 01-.138-.036c-.038-.025-.054-.016-.079.01a.636.636 0 00-.061-.053l-.035.012c-.013 0-.053.023-.063.013-.048-.041-.107-.012-.155-.028a1.983 1.983 0 01-.258-.051c-.021-.011-.051 0-.071-.031a.06.06 0 00-.043-.026.362.362 0 01-.138-.028.189.189 0 00-.1 0c-.137.035-.137.036-.263-.051l-.01-.01c-.092.025-.178-.069-.276-.01-.016.011-.056-.021-.081-.016-.12.026-.168-.041-.2-.137-.02-.036-.016-.049.056-.046zm17.809-12.532c-.03.086.023.183-.043.258a1.409 1.409 0 01-.109.456c-.015.031.051.061 0 .087.011.04-.016.068-.028.1s0 .059-.02.09 0 .071-.01.105-.018.041-.021.061a.562.562 0 00-.035.194.236.236 0 01-.021.089c-.012.059-.051.114-.035.181a.157.157 0 01-.026.115c-.012.018-.031.041-.026.058.021.1-.056.174-.066.266 0 .021-.02.041-.018.061a.2.2 0 01-.059.156c-.011.013-.026.031-.025.044 0 .089-.061.151-.069.239a.954.954 0 01-.084.229c0 .016-.018.035-.015.048.01.044-.016.069-.043.094a.135.135 0 00-.041.11c0 .056-.025.076-.025.114a.215.215 0 01-.041.11.687.687 0 00-.069.194.381.381 0 01-.028.072.35.35 0 00-.067.168c0 .049-.046.1-.064.153s-.066.1-.069.166-.063.1-.086.158c-.04.105-.082.207-.112.316-.015.059-.086.1-.081.174-.053.04-.059.109-.1.153s-.028.074-.048.107a1.25 1.25 0 01-.115.2.274.274 0 00-.041.107.035.035 0 00.008.023c.008.006.015 0 .018-.01s.035-.051.051-.077 0-.059.046-.043l-.013.049a.662.662 0 01-.156.281l-.03.023c0-.016-.015-.041-.008-.051a.491.491 0 01.067-.084c.02-.021.016-.036 0-.059s-.041 0-.061 0c-.058 0-.058.059-.059.076a.59.59 0 01-.138.249.682.682 0 00-.138.3.16.16 0 01-.067.123.666.666 0 00-.151.16.986.986 0 00-.1.179.432.432 0 01-.059.086.194.194 0 00-.071.127.147.147 0 01-.038.066l-.168.2c-.012.013-.036.026-.036.04 0 .11-.089.163-.15.23a.146.146 0 00-.02.035.8.8 0 01-.229.321c-.053.03-.086.087-.138.107s-.044.061-.076.081-.033.109-.105.107c-.013.051-.056.079-.089.117v.036a.1.1 0 00.03-.01l.188-.186h.03c.01 0 0 .021 0 .026s-.031.035-.048.051a3.123 3.123 0 00-.211.258 1.973 1.973 0 01-.4.374c-.105.069-.214.137-.314.212a.236.236 0 00-.112.137c0 .008-.011.015-.018.021-.056.044-.112.09-.166.136s-.066.125-.145.15a.2.2 0 00-.089.087.318.318 0 01-.1.1 3.017 3.017 0 01-.339.257c-.053.023-.071.1-.138.105-.086.115-.222.168-.323.265a1.008 1.008 0 01-.127.094h-.025c-.151.176-.382.242-.551.4-.021.02-.056.023-.082.04l-.118.079-.058.031a.482.482 0 00-.176.115c-.02.028-.069.033-.1.053a.59.59 0 00-.086.058 2.214 2.214 0 01-.425.219c-.092.044-.179.1-.276.138a.5.5 0 00-.137.12.124.124 0 01-.109.043.312.312 0 00-.227.056.463.463 0 01-.216.077 3.788 3.788 0 00-.423.128.7.7 0 01-.247.044.354.354 0 00-.221.038c-.054.033-.119-.012-.165.043a.872.872 0 01-.138.109.394.394 0 01-.242.089.873.873 0 00-.2.048.413.413 0 01-.183.036.129.129 0 00-.061.015 1.218 1.218 0 00-.329.15.246.246 0 01-.138.053 1.149 1.149 0 00-.295.069.9.9 0 00-.332.1c-.025.015-.066 0-.1 0a1.606 1.606 0 00-.413.066c-.03.007-.059.013-.089.018a.364.364 0 00-.156.025c-.041.021-.1-.018-.138.03h-.026c-.123-.021-.242.038-.364.028a.146.146 0 00-.087.021c-.015.008-.048-.021-.072-.021-.076 0-.145.035-.225.03a.3.3 0 00-.212.025h-.028a1.8 1.8 0 00-.365.023.2.2 0 01-.184-.02c-.01-.008-.051.03-.069.023-.1-.036-.2.021-.3 0a.621.621 0 00-.183-.03c-.03 0-.051.044-.091 0-.018-.018-.071 0-.109 0h-.461a.429.429 0 00-.112 0c-.043.011-.061-.053-.11-.021-.025.015-.069 0-.105-.008s-.081 0-.115-.028c-.008-.007-.026 0-.041 0-.137-.008-.262-.01-.392-.03a.987.987 0 01-.156-.03.206.206 0 00-.089 0 .255.255 0 01-.086-.026c-.016 0-.038 0-.048-.018-.039-.048-.069-.043-.109 0s-.087.018-.13.013-.049-.021-.072-.021a.176.176 0 01-.148-.053.067.067 0 00-.094-.007v.007a.183.183 0 00-.1-.03c-.058 0-.118.02-.171-.025a.055.055 0 00-.051 0c-.046.044-.03-.01-.041-.023s-.025-.008-.036-.013 0 .02 0 .03c0 .043-.031.069-.061.049a.6.6 0 01-.115-.089.136.136 0 00-.173-.033.356.356 0 01-.26-.013c-.035-.013-.008-.028 0-.035a.113.113 0 01.048-.02c.026 0 .036 0 .043-.035a.378.378 0 01.053-.09.743.743 0 00-.105-.041c-.064-.013-.138-.02-.2-.028h-.028c-.074-.059-.166-.046-.25-.067s-.156-.048-.234-.074c-.01 0-.016-.028-.015-.043a.143.143 0 01.023-.045c.015-.026.023-.062.046-.074s.059.02.086.021a3.475 3.475 0 00.367.061.358.358 0 01.155.026 1.211 1.211 0 00.342.084c.086.015.168.039.253.061a.423.423 0 01.074.021c.053.01.109-.016.16.02s.1 0 .155.031.118-.008.158.056h.039c.012 0 .066-.028.081-.016a.134.134 0 00.09.016h.1a.484.484 0 01.275.048.164.164 0 00.081.008c.051 0 .107.016.153-.025.041.048.1.018.138.023a.558.558 0 00.166 0 1.064 1.064 0 00.277-.053h.026c.039-.008.069.056.12 0 .021-.023.089 0 .138 0h.4a.114.114 0 00.084-.006c.018-.02.064-.015.081-.033.048-.049.117.007.166-.046s.112-.02.166-.031a2.915 2.915 0 01.561-.026h.013l.021-.013a.055.055 0 00-.02-.013c-.074-.01-.15-.023-.225-.028a.244.244 0 00-.137.02.164.164 0 01-.158-.012.054.054 0 00-.036-.008c-.03 0-.071.031-.082.021a.1.1 0 00-.091-.021.2.2 0 00-.137.018.177.177 0 01-.109 0c-.036 0-.059-.053-.109-.036a.5.5 0 01-.122.01c-.211 0-.413-.046-.629-.026a.882.882 0 00-.308-.03c-.053 0-.1-.035-.156-.028a.186.186 0 01-.138-.025c-.015-.01-.044 0-.069 0-.056-.01-.112.018-.171-.021s-.109 0-.169-.026a.879.879 0 00-.2-.031 2.676 2.676 0 01-.357-.084h-.11a.658.658 0 01-.1-.025c-.074-.013-.15-.018-.225-.03a.089.089 0 01-.033-.021l-.021-.018s.013-.015.02-.015c.123-.02.242-.071.369-.084l.025-.01a.174.174 0 00-.02-.028 1.5 1.5 0 00-.276-.072c-.036 0-.079-.028-.109-.018s-.059-.016-.087-.023c-.008 0-.016-.016-.021-.015-.128.03-.24-.062-.367-.056a.1.1 0 01-.053-.006.249.249 0 00-.191-.049h-.013a.39.39 0 00-.234-.061c-.026-.039-.066-.025-.1-.023a.178.178 0 01-.1-.028.5.5 0 00-.234-.035h-.01a.2.2 0 00-.186-.053c-.076.012-.118-.059-.186-.059-.018 0-.035-.026-.054-.036a.265.265 0 00-.107-.043 1 1 0 01-.283-.061.379.379 0 00-.128-.025.327.327 0 01-.169-.058.688.688 0 00-.146-.053.807.807 0 01-.181-.071c-.1-.049-.2-.138-.323-.123a.05.05 0 01-.026-.008c-.067-.061-.163-.061-.234-.107a1.405 1.405 0 00-.319-.138 2.623 2.623 0 01-.291-.137 3.354 3.354 0 01-.438-.257c-.087-.062-.186-.112-.275-.17s-.176-.115-.26-.176c-.148-.105-.285-.227-.439-.321-.191-.115-.337-.285-.53-.4a1.6 1.6 0 01-.2-.178c-.16-.137-.324-.262-.474-.413-.043-.043-.068-.1-.123-.13a.956.956 0 01-.138-.132c-.048-.043-.1-.079-.138-.122s-.091-.092-.137-.138a1.84 1.84 0 00-.2-.206c-.041-.03-.064-.086-.1-.124s-.082-.056-.115-.09-.071-.094-.11-.138-.1-.058-.123-.1a2.464 2.464 0 00-.234-.275 3.394 3.394 0 00-.309-.379.6.6 0 01-.138-.2.561.561 0 00-.1-.122.532.532 0 01-.13-.183.469.469 0 00-.138-.2.8.8 0 01-.107-.15c-.061-.1-.137-.2-.2-.295s-.137-.211-.194-.321a1.448 1.448 0 01-.138-.276 1.052 1.052 0 00-.148-.23 2.289 2.289 0 00-.158-.311c-.012-.128-.109-.214-.163-.321-.025-.046-.044-.092-.064-.137-.039-.1-.1-.2-.13-.308a3.523 3.523 0 01-.174-.443.234.234 0 00-.044-.079c-.012-.023-.04-.048-.035-.068a.416.416 0 00-.061-.227c-.026-.074-.016-.158-.082-.217.008-.105-.064-.186-.092-.281 0-.025-.01-.031 0-.051s0-.035-.018-.041a.122.122 0 01-.063-.115.263.263 0 00-.051-.2.033.033 0 010-.025l.013-.048c.01.01.026.018.03.03a1.421 1.421 0 00.1.225 1.67 1.67 0 00.178.385.879.879 0 01.074.178c.056.125.117.249.176.372 0 .011.016.021.018.035s-.007.063.036.051c.012 0 .021-.04.018-.056a.634.634 0 01-.028-.184.04.04 0 00-.013-.035c-.069-.066-.077-.163-.125-.24a.506.506 0 01-.054-.138c-.013-.059-.018-.122-.03-.183a.3.3 0 00-.028-.072.2.2 0 010-.217c.013-.021.041-.054 0-.089-.01 0 0-.049.016-.059.039-.031.036-.069.038-.11a.405.405 0 01.038-.249.028.028 0 000-.028c-.063-.089-.049-.2-.092-.3a.548.548 0 010-.207.173.173 0 00-.018-.091c-.025-.044-.067-.1-.012-.156.012-.013 0-.058-.013-.087a.779.779 0 01-.068-.293c-.044-.054-.02-.127-.048-.189a.13.13 0 01.054-.174l.026-.01c.076-.031.109-.069.074-.125s-.01-.117-.023-.171a1.229 1.229 0 01-.053-.173 1.086 1.086 0 010-.179.966.966 0 000-.194.773.773 0 01-.026-.212.322.322 0 00-.053-.186c-.011-.021 0-.054 0-.082v-.4c.013-.3-.023-.6-.028-.905a.657.657 0 01.023-.212c.018-.066 0-.138.056-.2.01-.01 0-.043 0-.064s-.011-.013-.02-.02c.056-.051.039-.109.033-.174s.035-.128.023-.2c.063-.069-.01-.171.056-.24v-.25a.232.232 0 01.031-.1 2.422 2.422 0 01.109-.374.241.241 0 000-.1.616.616 0 010-.11.258.258 0 01.026-.086c.069-.138.056-.3.138-.431-.03-.1.054-.173.061-.268a1.164 1.164 0 01.079-.257c.008-.03.008-.071.03-.082.041-.028.018-.067.035-.1a.245.245 0 00.018-.1.1.1 0 01.031-.086.092.092 0 00.007-.056.551.551 0 01.056-.158 3.49 3.49 0 00.086-.275v-.039c.059-.031.035-.1.059-.138s.013-.1.066-.128c.018-.012.023-.056.016-.1s.043-.1.069-.148c.067-.125.137-.249.2-.377a.7.7 0 01.051-.1 1.286 1.286 0 00.082-.189c.051-.109.115-.211.176-.316a1.3 1.3 0 00.094-.184 1.428 1.428 0 01.16-.3c.069-.1.138-.193.2-.291.01-.015.028-.033.026-.044-.02-.086.043-.127.094-.171a2.263 2.263 0 00.309-.375.462.462 0 00.1-.206.336.336 0 01.105-.166 1.186 1.186 0 00.184-.2 1.128 1.128 0 01.122-.128.4.4 0 00.086-.119.151.151 0 01.091-.067c.053-.023.051-.077.094-.1a.094.094 0 00.036-.054.077.077 0 01.069-.082.148.148 0 00.1-.1.128.128 0 01.11-.1.2.2 0 00.1-.056 2.355 2.355 0 00.26-.27.394.394 0 01.138-.137.4.4 0 00.12-.114c.043-.049.081-.1.127-.15a.778.778 0 01.16-.114 2.026 2.026 0 00.331-.249.428.428 0 01.117-.082.388.388 0 00.137-.094c.013-.015.025-.036.041-.039.1-.013.123-.137.229-.148a.2.2 0 01.114-.089.3.3 0 00.125-.1c.031-.043.1-.044.112-.105a.024.024 0 01.02-.015.717.717 0 00.318-.138c.081-.043.156-.094.235-.137a1.634 1.634 0 01.161-.081h.038c.011 0-.008.023-.016.03a2.442 2.442 0 00-.211.16c-.038.036-.094.016-.128.064a.509.509 0 01-.115.09c-.038.03-.072.074-.117.086-.076.021-.12.082-.189.112a1.154 1.154 0 00-.359.244 1.452 1.452 0 01-.125.1.556.556 0 01-.115.092c-.058.026-.086.092-.138.138a2.2 2.2 0 01-.227.163c-.015.01-.036.011-.046.021-.069.087-.179.138-.234.232a.08.08 0 01-.039.038c-.092.023-.137.105-.193.166s-.178.138-.229.252c-.013.031-.063.046-.094.069a2.634 2.634 0 01-.359.3c-.061.132-.194.2-.275.318a2.187 2.187 0 01-.2.214 1.167 1.167 0 00-.245.354.049.049 0 01-.016.033c-.107.058-.138.173-.2.263a1.546 1.546 0 01-.117.2.672.672 0 00-.112.288.471.471 0 01-.1.222c-.016.107-.125.171-.123.283-.076.066-.069.178-.15.245a.283.283 0 00-.077.176.481.481 0 01-.064.153.927.927 0 00-.127.351.064.064 0 01-.012.038.7.7 0 00-.138.288c-.035.084-.064.17-.091.255a.877.877 0 00-.007.207.174.174 0 01-.026.113c-.02.028-.059.066 0 .1.007 0-.01.048-.02.071a.512.512 0 00-.036.186 2.608 2.608 0 01-.082.464 3.6 3.6 0 01-.138.415.174.174 0 000 .082.169.169 0 01-.039.123.358.358 0 00-.043.148c-.01.043.016.092-.018.137s0 .084-.035.127.028.1.016.138-.056.066-.049.12a.1.1 0 01-.025.071c-.041.041-.036.1-.056.145s0 .079-.028.115c-.008.008 0 .046.012.061a.049.049 0 01-.01.068.093.093 0 00-.021.082c0 .054.021.127 0 .161s0 .115-.051.148c-.01.087-.018.178-.03.267-.008.066-.021.138-.026.2s0 .138 0 .209a.058.058 0 01-.013.036c-.028.03-.008.048.013.068a.055.055 0 00.079 0h.007a2.21 2.21 0 00.118-.119.083.083 0 00.02-.048.3.3 0 01.03-.168 2.615 2.615 0 01.03-.393 1.027 1.027 0 01.026-.156c0-.051-.018-.109.03-.155a1.115 1.115 0 01.054-.311.283.283 0 01.026-.074.443.443 0 00.028-.153.381.381 0 01.051-.232c.016-.02 0-.071.015-.089.049-.049-.008-.117.044-.166s.016-.105.035-.15c.035-.082.033-.173.069-.248s.056-.163.09-.242a.4.4 0 00.061-.212.155.155 0 01.023-.059c0-.011.03-.021.028-.028-.025-.1.071-.174.059-.276a.076.076 0 01.031-.071c.008-.008.026-.023.025-.031-.026-.112.089-.179.086-.286a.06.06 0 01.018-.033c.033-.036.074-.069.039-.13-.008-.015.01-.053.026-.071a.725.725 0 00.123-.214.686.686 0 00.1-.222.047.047 0 01.013-.023c.063-.059.069-.15.112-.219.15-.242.247-.514.413-.749a2.117 2.117 0 00.109-.232.892.892 0 01.146-.219.327.327 0 00.069-.1c.064-.127.176-.219.239-.346a.359.359 0 01.114-.148.52.52 0 00.137-.163 1.474 1.474 0 01.189-.214c.041-.051.115-.079.112-.165 0-.015.03-.031.046-.048l.207-.206c.03-.033.072-.054.081-.107a.085.085 0 01.048-.048c.117-.048.176-.156.263-.235s.191-.163.291-.239a.718.718 0 00.193-.2.375.375 0 01.1-.092c.01-.008.03 0 .035-.01a1.467 1.467 0 01.324-.263 2.549 2.549 0 01.336-.262.529.529 0 00.138-.11c.087-.086.212-.119.285-.219 0-.008.013-.018.02-.02.138-.016.217-.125.326-.189.084-.048.16-.109.244-.153s.169-.086.25-.138c.161-.1.337-.171.5-.262.074-.04.163-.033.225-.1.016-.018.079 0 .117.01a.2.2 0 00.173-.021 1.855 1.855 0 01.426-.217.321.321 0 00.148-.112.313.313 0 01.234-.11 1.419 1.419 0 00.23-.079.456.456 0 01.155-.031c.084 0 .169-.015.253-.028a.084.084 0 00.043-.03.364.364 0 01.29-.11c.059 0 .125.02.178-.043.025-.033.084 0 .125-.035s.11.008.105.03a.148.148 0 01-.049.069c-.031.031-.056.071-.112.069-.028 0-.066.028-.023.071.01.01 0 .038 0 .054s.016.081.074.038c.015-.01.046 0 .069 0 .122.026.222-.057.339-.056.035-.054.1-.059.147-.079a1.394 1.394 0 01.255-.059c.074-.012.151-.012.225-.03a.96.96 0 00.137-.03c.117-.048.252 0 .359-.077h.041a.477.477 0 00.186-.023c.046-.026.112 0 .169-.028s.091 0 .138 0 .092.018.128-.025h.026c.046.016.1.051.138.023s.1-.018.138-.023c.069-.01.137-.018.211-.031.008 0 .023-.026.021-.038 0-.057.036-.041.064-.041l.008.023c-.043.056 0 .054.038.061.123.016.242-.036.365-.028.051 0 .11-.023.156.026a.042.042 0 00.04 0c.049-.038.1-.021.156-.028s.13-.035.191.025c.015.016.066 0 .1-.01a.472.472 0 01.207-.043c.211 0 .413.046.629.031a.437.437 0 01.114.026c.038.008.084-.016.115.025h.026c.15.01.3.02.449.026.046 0 .1.021.137-.025.008-.008.043 0 .064.01a.466.466 0 00.091.015.035.035 0 00.023-.025c0-.01-.013-.028-.018-.028a.494.494 0 01-.235-.074c-.007 0-.02-.013-.021-.01-.054.053-.105 0-.16 0a.71.71 0 01-.275-.049.313.313 0 00-.1 0c-.164-.01-.328-.015-.49-.031a.548.548 0 01-.138-.054c-.018-.008-.048-.03-.056-.023-.069.045-.138.008-.2 0s-.118.026-.183.026h-.515c-.171 0-.346.038-.518.03-.039 0-.074.056-.112.023s-.068.02-.105 0a.317.317 0 00-.125 0 .616.616 0 00-.137.028c-.043.01-.092-.018-.13.026a.088.088 0 01-.036-.007c-.051-.058-.086.038-.137.011l-.01.01.018.015h.125a.185.185 0 01.059.023c.007 0 .012.012.018.018s-.016.013-.023.013h-.191c-.008 0-.021 0-.025-.007s0-.066-.048-.046c-.02.01-.031.039-.043.063s-.025 0-.036 0c-.04-.016-.084-.007-.128-.03a.141.141 0 00-.155.051c-.025.031-.043 0-.059 0a.624.624 0 00-.311.023.1.1 0 01-.054 0 .352.352 0 00-.229.056.109.109 0 01-.1.028c-.04-.011-.068.013-.1.028s-.021.02-.033.021c-.165 0-.319.094-.489.061a.1.1 0 01-.03-.015l.036-.012a1.161 1.161 0 01.3-.107c.1-.023.189-.061.283-.091l.072-.026c.079-.018.158-.038.168-.138a.061.061 0 01.068-.053c.086 0 .155-.058.242-.061.044 0 .086-.059.13-.087a.216.216 0 01.137-.048 1 1 0 00.369-.054.311.311 0 01.054 0 1.644 1.644 0 00.336-.031c.092-.026.188 0 .267-.028s.171 0 .255-.02a12 12 0 011.377-.03 4.2 4.2 0 00.433.026c.072.041.151.018.225.03a1.285 1.285 0 00.225.028.85.85 0 01.224.028c.112.031.224.066.336.1a.191.191 0 00.051.013 1.515 1.515 0 01.54.11c.087.026.179.041.27.063s.206.061.309.087.155.094.247.114.163.087.262.072a.668.668 0 00.244.082 1.574 1.574 0 00.242.089c.043.076.138.036.191.079a.438.438 0 00.186.086c.036 0 .067.038.1.053.15.066.3.128.448.2.066.03.123.081.193.109a1.225 1.225 0 01.285.153 1.112 1.112 0 00.188.082c.2.1.385.232.591.324a.677.677 0 01.12.082c.173.122.352.232.517.369a3.674 3.674 0 01.334.26 3.733 3.733 0 00.3.258c.127.105.237.229.364.334.077.064.15.132.222.2l.087.089c.028.03.039.063.066.074s.043.066.072.091c.054.046.092.11.163.137.033.015.044.066.071.094.1.109.2.211.293.326a3.083 3.083 0 01.347.453.894.894 0 00.114.138c.084.094.122.216.211.3.012.01.01.036.021.045a.4.4 0 01.137.2.983.983 0 00.166.265c.063.086.1.183.16.275.081.123.137.257.222.38a1.422 1.422 0 01.1.226c.044.107.105.206.156.311a3.836 3.836 0 01.222.561 1.253 1.253 0 01.115.316c.051.041.011.11.051.16s.035.119.063.168.016.11.048.163 0 .122.036.163.007.13.048.191a.245.245 0 01.031.179c.089.176.082.38.163.558a.23.23 0 010 .082.424.424 0 00.013.176c.031.054-.02.122.041.165v.04a.327.327 0 000 .16c.013.049 0 .107.03.153s-.043.071 0 .119a.244.244 0 01.03.127.631.631 0 000 .137 3.356 3.356 0 01.03.4 4.155 4.155 0 01.025.573c0 .033-.008.066.025.089.007 0 .008.028 0 .038a1.484 1.484 0 00-.028.434c-.007.071-.021.138-.026.211s0 .138 0 .209a.83.83 0 00-.028.138c0 .043.025.092-.02.13.049.091-.03.176-.008.268a.3.3 0 01-.01.188c-.03.056.018.122-.041.166-.011.008 0 .044 0 .067-.01.066.02.138-.02.2s0 .119-.03.183-.008.146-.033.222a2.349 2.349 0 00-.051.242c-.015.072-.021.148-.035.222-.008.043-.018.086-.028.128s.013.1-.02.146 0 .094-.01.137a2.307 2.307 0 00-.1.4c-.036.137-.061.275-.1.413a4.264 4.264 0 00-.105.456 1.371 1.371 0 01-.051.137.714.714 0 00-.061.2.083.083 0 01-.02.046c-.007.011-.028.023-.026.03.025.117-.086.188-.1.3a.876.876 0 01-.114.275c-.011.023-.023.023.012.041.059.025.053.031.025.1a1.828 1.828 0 01-.181.316.588.588 0 00-.041.079 1.133 1.133 0 01-.138.247c-.056.071-.069.173-.15.232a1.634 1.634 0 01-.209.329c-.038.059-.069.12-.105.178a.168.168 0 00-.035.138v.026c-.061.035-.043.105-.069.153a.833.833 0 01-.109.163c-.138.15-.237.323-.377.467-.1.107-.191.227-.286.342a.833.833 0 00-.137.249.324.324 0 01-.058.132s0 .028.008.035a.035.035 0 00.036 0 1 1 0 00.12-.1c.038-.038.089-.077.1-.123.018-.081.1-.09.138-.15a1.658 1.658 0 01.222-.257 1.665 1.665 0 00.219-.275 2.108 2.108 0 01.176-.207 6.41 6.41 0 00.55-.759c.118-.189.239-.382.352-.578a.919.919 0 01.138-.249 1.058 1.058 0 00.15-.229.927.927 0 00.064-.127.353.353 0 01.084-.138c.013-.01.03-.03.026-.043-.01-.068.049-.114.054-.171s.079-.084.066-.158c-.008-.043.04-.092.061-.138a1.083 1.083 0 00.128-.336 1.775 1.775 0 00.148-.357.344.344 0 00.051-.119.171.171 0 01.061-.1c.023-.021.076-.043.091-.031s0 .058-.011.092a1.248 1.248 0 00-.059.184c-.012.038-.03.072-.043.109a2.378 2.378 0 00-.151.413c-.058.059-.049.146-.087.214a.435.435 0 00-.089.2.113.113 0 01-.048.076.228.228 0 00-.067.127 3.134 3.134 0 01-.277.551c-.031.049-.046.112-.076.163s0 .1-.071.1c0 0-.013.023-.01.035a.375.375 0 01-.036.227.545.545 0 00-.1.184 2.052 2.052 0 01-.189.324.762.762 0 00-.138.25.27.27 0 01-.058.086c-.028.04-.061.077-.087.118-.082.125-.173.244-.257.365a.81.81 0 01-.059.087c-.084.1-.173.189-.255.285a.447.447 0 00-.051.091.035.035 0 00.008.023l.02-.008c.026-.016.066-.028.074-.049.031-.082.109-.122.161-.184l.166-.194c.03-.035.008-.1.061-.114s.043-.074.071-.094a.272.272 0 00.1-.124c.02-.054.071-.079.09-.128a.093.093 0 01.036-.04.352.352 0 00.155-.239.2.2 0 01.048-.107.914.914 0 00.11-.163 1.43 1.43 0 01.127-.211c.049-.066.092-.138.138-.209a2.454 2.454 0 01.169-.275c.086-.1.12-.234.207-.332.036-.147.138-.267.181-.413.008-.028.016-.066.038-.079.1-.066.089-.191.158-.277-.026-.061.04-.086.058-.128.061-.151.138-.3.191-.449s.107-.29.156-.436a.275.275 0 00.081-.008c-.02.086-.081.16-.069.253a.061.061 0 01-.016.035c-.081.138-.1.3-.178.441.015.053-.038.068-.054.1a.842.842 0 00-.056.138c-.011.048-.082.068-.056.128a1.319 1.319 0 01-.13.211c-.058.064-.051.16-.12.216a2.811 2.811 0 01-.225.477 1.37 1.37 0 01-.1.151c-.041.068-.089.138-.043.219a.056.056 0 010 .046 3.94 3.94 0 00-.217.413 6.069 6.069 0 00-.385.592c-.015.021-.03.049-.051.054s-.043.028-.03.048c.028.048-.074.087 0 .138l-.01.018c-.066.074-.112.16-.174.235s-.161.173-.237.262a1.064 1.064 0 00-.138.183c-.033.063-.117.087-.138.165 0 .013-.018.021-.026.031a1.06 1.06 0 00-.17.194c-.033.056-.094.086-.137.137-.166.189-.344.37-.522.551-.025.028-.069.041-.094.071-.074.1-.174.166-.255.253a.129.129 0 00-.021.061.034.034 0 00.008.023l.018-.01.166-.138c.023-.02.039-.051.079-.043h.025c.04-.1.181-.117.207-.232.114-.056.146-.2.275-.249.035-.013.049-.071.082-.1.067-.064.145-.12.212-.188a.6.6 0 00.169-.194h.026c.008 0 .013.013.013.016a.468.468 0 01-.127.24.742.742 0 00-.171.193c-.023.038-.079.058-.114.091-.117.112-.23.227-.344.344-.03.031-.049.074-.081.105s-.072.051-.105.079a.176.176 0 00-.063.1c-.011.066-.068.086-.171.087l-.016.035c.044.046.044.071-.028.071a.071.071 0 00-.044.028 1.381 1.381 0 01-.255.191.829.829 0 00-.092.076.145.145 0 00-.026.056l.051.012c.038.01.059-.016.084-.04.053-.046.089-.115.165-.137.008 0 .013-.018.021-.018a.045.045 0 01.035.01v.036c-.094.04-.137.138-.216.186a2.357 2.357 0 00-.2.179c-.1.076-.2.138-.3.217l-.224.166c-.12.09-.242.176-.362.268s-.214.12-.309.2a1.99 1.99 0 01-.3.181 2.478 2.478 0 00-.267.165 2.471 2.471 0 01-.262.138c-.025.013-.086.008-.033.066-.031.023-.058.063-.091.069a.283.283 0 00-.107.046.884.884 0 01-.181.069c-.02.007-.048 0-.063.013-.074.063-.176.074-.252.138a.364.364 0 01-.165.073.466.466 0 00-.138.059c-.051.025-.094.072-.158.056h-.026c-.043.077-.128.044-.191.076a.326.326 0 01-.2.061 1.512 1.512 0 01-.323.127c-.092.038-.191.058-.276.1a3.795 3.795 0 01-.36.105 2.17 2.17 0 01-.247.079c-.161.033-.319.079-.479.122s-.293.054-.438.089a2.755 2.755 0 00-.444.105c-.074-.02-.137.021-.211.03a.821.821 0 00-.155.026c-.046.013-.079-.061-.138 0-.021.025-.089 0-.138.008a1.033 1.033 0 00-.137.048.073.073 0 01-.026 0 3.211 3.211 0 00-.378.03 1.8 1.8 0 00-.186.025.647.647 0 00-.178 0 .6.6 0 01-.242.023c-.056 0-.12.021-.169-.026a.23.23 0 01-.155.026h-.53c-.1 0-.207-.02-.311-.025a1.885 1.885 0 01-.306 0 2.2 2.2 0 00-.295-.025.934.934 0 01-.138-.026c-.053-.008-.105.013-.158-.023s-.1.01-.138-.03c-.01-.01-.038 0-.056 0a.3.3 0 01-.181-.033.307.307 0 00-.115-.023.345.345 0 01-.158-.026c-.044-.023-.1 0-.156-.025s-.138 0-.194-.033h-.026c-.043-.035-.086-.073-.145-.031a2.786 2.786 0 01-.462-.128 2.841 2.841 0 01-.481-.12 2.324 2.324 0 01-.379-.127.866.866 0 00-.211-.066c-.056 0-.1-.044-.158-.058a1.332 1.332 0 01-.239-.128 5.653 5.653 0 01-.551-.244c-.054-.03-.123-.026-.181-.069s-.114-.057-.173-.082c-.12-.071-.247-.127-.362-.206-.039-.025-.086-.039-.127-.064-.1-.058-.2-.109-.293-.171s-.186-.11-.275-.17c-.171-.115-.359-.2-.518-.331-.087-.072-.186-.138-.275-.2-.072-.051-.138-.1-.214-.156s-.151-.109-.222-.168c-.137-.109-.255-.229-.392-.333-.212-.16-.39-.355-.588-.53-.372-.328-.7-.69-1.06-1.037a.72.72 0 01-.183-.216c-.059-.138-.2-.211-.255-.352a.364.364 0 00-.1-.127 1.316 1.316 0 01-.267-.377c-.026-.054-.086-.087-.12-.145a6.95 6.95 0 00-.275-.43 4 4 0 01-.3-.53.352.352 0 00-.056-.074 1.324 1.324 0 01-.122-.229 1.691 1.691 0 01-.1-.222.479.479 0 00-.119-.186c-.008 0-.018-.013-.02-.021a1 1 0 00-.114-.3 1.224 1.224 0 00-.123-.276.124.124 0 01-.015-.049 2.543 2.543 0 01-.138-.441c-.068-.087-.054-.211-.127-.295-.008-.008 0-.025-.008-.038a.175.175 0 01-.013-.038.21.21 0 00-.015.046c0 .053-.018.112.041.15.008 0 .016.031.013.035-.072.084.015.146.03.217s.054.109.067.166a1.184 1.184 0 00.068.137c.021.059.018.127.039.179s0 .138.072.165a.233.233 0 00.068.153c.013.013.013.039.018.061.013.054.013.125.046.16s.033.1.072.138a.539.539 0 01.077.161 1.848 1.848 0 00.179.372c.066.1.127.2.189.3a1.05 1.05 0 01.043.122c.016.033.056.049.068.1a.873.873 0 00.081.161.239.239 0 00.094.128.116.116 0 01.044.076.677.677 0 00.166.293c.01.013.031.03.03.043-.02.092.053.146.082.216a.1.1 0 00.059.066.044.044 0 01.026.035.219.219 0 00.087.174c.061.058.087.146.174.176.008 0 .013.021.018.035a.718.718 0 00.179.247.47.47 0 01.089.115.467.467 0 00.2.2.079.079 0 01.038.053.279.279 0 00.1.168 1.385 1.385 0 01.137.161.952.952 0 00.219.2c.094.058.146.165.237.232.016.076.109.068.138.13a.389.389 0 00.153.156c.071.035.1.117.181.138.041.1.138.137.211.188a1.02 1.02 0 01.15.186c.038.049.066.1.137.114.043 0 .079.053.12.077s-.036.048.013.071.072.112.155.1c.059.074.16.1.219.169a2.06 2.06 0 00.377.275.492.492 0 01.074.056.348.348 0 00.16.089c.046.011.059.082.117.11a.8.8 0 01.247.148c.035.035.1.041.151.069a2.763 2.763 0 00.265.168.76.76 0 01.219.11c.016.013.041.031.056.026a.21.21 0 01.193.076c.064.056.158.023.211.09.044-.067.087.03.138 0a.444.444 0 00.156.094.011.011 0 00.01.01c.049.013-.016.094.054.091a.146.146 0 01.1.028c.025.016.063.018.081.038.077.082.183.079.276.1a.664.664 0 01.112.035c.112.053.227.1.344.146a.163.163 0 00.049.013.478.478 0 01.349.079 1.144 1.144 0 00.275.089c.038.008.076.021.115.026s.074 0 .11 0a.085.085 0 01.049.011.577.577 0 00.295.1 1.144 1.144 0 00.2.026.148.148 0 01.084.03.221.221 0 00.189.051.972.972 0 01.341.057c.028.053.087.008.123.038s.089.016.138.015a.249.249 0 01.127.031c.03.015.054.048.092 0 .008-.01.059 0 .081.025a.259.259 0 00.2.053h.028a5.686 5.686 0 01.6.031c.054 0 .115.053.168.021a.2.2 0 01.156-.021 1.76 1.76 0 00.436.023h.431a.371.371 0 00.084 0 1.265 1.265 0 00.128-.051c.036.044.087.023.13.023a.7.7 0 00.128-.026.037.037 0 01.025.008v.016c-.048.049-.091.107-.174.087a.192.192 0 00-.091.013c-.012 0-.018.018-.028.028.013 0 .026.015.036.013a1.179 1.179 0 01.2-.031c.066-.018.138-.008.2-.026.138-.044.29-.028.428-.079a.309.309 0 01.1 0c.033 0 .1.023.138-.025.048.059.1 0 .138 0a.463.463 0 00.151 0c.058-.026.12 0 .17-.028a.586.586 0 01.169-.025c.138-.023.276-.048.415-.058.081 0 .156-.054.242-.054.051-.058.137 0 .186-.054a1.061 1.061 0 00.342-.082c.041-.02.1.02.138-.03.1.021.186-.053.283-.057.044 0 .089-.051.13-.048s.1-.031.155-.035a.305.305 0 00.138-.028c.11-.072.245-.054.36-.107a3.493 3.493 0 01.337-.128.25.25 0 01.051-.013 1.124 1.124 0 00.354-.119c.094-.046.2-.066.288-.114a2.164 2.164 0 01.276-.138 2.531 2.531 0 00.275-.138c.092-.046.189-.084.276-.137.169-.094.346-.181.505-.29.076-.049.161-.082.239-.13.109-.066.216-.137.319-.206a1.966 1.966 0 00.311-.225.209.209 0 01.068-.038.045.045 0 01.035.01c.016.1.079.021.094.013a1.872 1.872 0 00.318-.275c.016-.02-.031-.051.013-.069a.435.435 0 00.066-.039l.076-.056a.4.4 0 00.051-.041 1.741 1.741 0 01.3-.247l.02-.018c.15-.138.3-.283.453-.423.059-.056.128-.1.184-.158a4.992 4.992 0 00.457-.494c.127-.171.286-.308.415-.467a3.54 3.54 0 01.318-.367c.036-.138.179-.206.249-.328a3.167 3.167 0 01.222-.326 1.555 1.555 0 00.16-.227 6.047 6.047 0 00.425-.729c.138-.174.191-.4.324-.574a.875.875 0 01.094-.225 2.4 2.4 0 00.12-.275 5.3 5.3 0 00.242-.624 1.062 1.062 0 00.141-.332c.016-.069.082-.13.028-.207v-.02c.1-.112.092-.267.151-.4a1.347 1.347 0 00.043-.138.508.508 0 00.053-.155.245.245 0 01.028-.112.248.248 0 00.026-.128.108.108 0 01.01-.064 1.544 1.544 0 00.119-.314.108.108 0 00.008-.051.953.953 0 01.066-.377 1.474 1.474 0 01.12-.354c.03-.049.01-.11.033-.168a1.612 1.612 0 00.035-.25.469.469 0 01.053-.138.745.745 0 00.04-.189 2.239 2.239 0 00.018-.277.1.1 0 01.028-.056.092.092 0 01.058-.018c.008 0 .023.025.023.038a.565.565 0 01-.023.24c-.018.04 0 .091 0 .138a.47.47 0 01-.025.2c-.025.054.023.127-.03.183a.965.965 0 01-.058.367v.013c.021.183-.041.362-.028.551a.412.412 0 01-.016.061c-.01.061-.031.117-.043.179a1.5 1.5 0 01-.064.319 2.275 2.275 0 00-.071.276 1.647 1.647 0 01-.229.573.106.106 0 000 .124.243.243 0 01.013.123.177.177 0 01-.04.127.364.364 0 00-.046.137 1.34 1.34 0 01-.056.184c-.025.059-.074.146-.105.22-.007.016.013.044.013.066a.27.27 0 01-.018.062.1.1 0 01-.02.061.409.409 0 00-.114.313c0 .068-.043.1-.067.138a.92.92 0 00-.161.35c0 .011-.013.021-.021.033a.281.281 0 00-.033.056c-.026.064-.046.132-.077.191s-.094.112-.114.174a2.531 2.531 0 01-.179.344 2.35 2.35 0 00-.189.324c-.109.074-.112.224-.217.3a1.538 1.538 0 01-.212.329c-.072.1-.138.211-.207.319a1.447 1.447 0 01-.137.163.668.668 0 00-.115.146.7.7 0 01-.094.138c-.059.074-.125.137-.186.214-.025.031-.046.066-.069.1a.584.584 0 01-.059.087c-.257.268-.517.536-.777.8-.069.071-.151.13-.224.2a2.057 2.057 0 01-.221.212c-.092.061-.153.165-.265.2-.008 0-.021 0-.021.012-.013.064-.069.086-.117.117s-.066.087-.127.1c-.021 0 0 .061-.046.053-.082.1-.222.127-.311.221v.028a.077.077 0 00.028 0c.008 0 .012-.013.02-.018l.425-.255h.038c.011 0-.008.023-.016.028a1.175 1.175 0 00-.276.217.548.548 0 01-.1.054.651.651 0 00-.2.145c-.039.056-.109.039-.15.086a.521.521 0 01-.137.1 2.258 2.258 0 01-.138.071c-.138.061-.267.16-.413.212a.242.242 0 01-.173.092.228.228 0 00-.137.117s.013.035.021.036a.126.126 0 00.114-.033.947.947 0 01.181-.128.277.277 0 01.1-.02c.086-.013.137-.079.219-.11s.168-.089.255-.122c.061-.021.087-.112.173-.086l.018-.031a.153.153 0 01.056-.051.381.381 0 00.178-.11c.023-.02.044-.053.077-.012h.018c.008-.079.063-.074.122-.074.013 0 .026-.026.043-.031.051-.016.059-.074.1-.1a.135.135 0 00.087-.087c0-.015.025-.026.039-.033a1.149 1.149 0 00.275-.193 3.893 3.893 0 01.4-.276c.056-.036.109-.076.163-.112a.146.146 0 01.038-.015c0 .013 0 .03-.01.038a.228.228 0 00-.079.15c0 .043-.064.086-.107.12a2.64 2.64 0 00-.191.137 1.285 1.285 0 01-.26.181c-.071.048-.122.119-.2.165a2.2 2.2 0 00-.253.2.086.086 0 01-.072.026c-.039 0-.063 0-.056.049a.061.061 0 01-.016.035.389.389 0 00-.038.068c0 .013.036 0 .086-.03a1.186 1.186 0 01.222-.138c.082-.03.16-.071.239-.094a.44.44 0 00.176-.137c.023-.021.033-.059.058-.072a.716.716 0 00.194-.2.581.581 0 01.258-.184.212.212 0 00.1-.062.789.789 0 01.234-.146h.018a.032.032 0 010 .025.093.093 0 01-.025.031 1.316 1.316 0 01-.349.3c-.021.008-.035.031-.051.048-.079.082-.181.138-.258.212a4 4 0 00-.387.319.353.353 0 01-.082.064 3.789 3.789 0 01-.428.311.02.02 0 000 .023.045.045 0 00.026.023.139.139 0 00.117-.049 3.78 3.78 0 01.375-.311c.058-.054.123-.1.184-.16a.152.152 0 01.076-.048c.084-.013.132-.087.2-.122.021-.01.031-.043.051-.061a1.179 1.179 0 01.112-.11.889.889 0 00.206-.211c.148-.076.222-.242.372-.314.058-.03.053-.109.123-.138a.219.219 0 00.115-.127.218.218 0 01.086-.087.832.832 0 00.311-.283c.056-.079.114-.158.178-.232.1-.12.216-.235.323-.354.051-.058.1-.12.151-.174s.137-.123.212-.189a3.027 3.027 0 00.431-.55 1.7 1.7 0 01.209-.318 1.3 1.3 0 01.207-.359c.021-.043.064-.077.077-.122a.821.821 0 01.147-.275c.092-.123.138-.276.219-.4.018-.028 0-.054-.035-.016 0-.01-.018-.02-.016-.028a.064.064 0 01.02-.031 1.422 1.422 0 00.253-.438c.015-.025.025-.054.039-.081.031-.053.049-.11.076-.163a1 1 0 01.082-.176.32.32 0 00.03-.1.324.324 0 01.035-.1 1.411 1.411 0 00.166-.306c0-.013.021-.021.023-.033a2.487 2.487 0 01.275-.708.635.635 0 00.092-.27.164.164 0 01.028-.071.388.388 0 00.056-.158.284.284 0 01.092-.186.242.242 0 00.077-.176 1.122 1.122 0 01.056-.3c.013-.038.013-.1.089-.092a.079.079 0 00.044-.056.222.222 0 01.072-.2c.033-.028.028-.09.036-.137a1.282 1.282 0 01.074-.22.147.147 0 00.015-.064.209.209 0 01.048-.194c.016-.02.04-.053.035-.068-.043-.087.02-.171 0-.257a.257.257 0 01.026-.125.4.4 0 01.053-.089c-.051-.03-.012-.058 0-.089s-.01-.043-.015-.062c-.011-.053-.031-.105.015-.15a.168.168 0 00.02-.038c.01.01.03.021.03.03 0 .051.074.1.008.153v.181a1.019 1.019 0 01-.012.291zm3.5-5.179a.526.526 0 00-.094-.308.286.286 0 01-.044-.216 1.313 1.313 0 00.025-.323c0-.01.012-.018.016-.028l.01.025a.185.185 0 01.026.071 3.234 3.234 0 00.119.588c.049.053 0 .117.023.155s0 .082 0 .115a.03.03 0 11-.054.028.028.028 0 010-.028.174.174 0 01-.021-.076zm.193 2.864l-.02.043c-.018-.011-.044-.018-.054-.035a.128.128 0 01-.008-.066.307.307 0 00-.04-.178.125.125 0 01-.015-.09.584.584 0 000-.352 1.262 1.262 0 010-.249.184.184 0 00-.02-.13c-.015-.02 0-.066.012-.1a.185.185 0 00.008-.051.3.3 0 01.11-.319l.02-.013.01.023v.138a.662.662 0 01-.016.189.65.65 0 00-.015.188.757.757 0 010 .192.859.859 0 00-.023.267.21.21 0 00.023.13c.026.044.012.115.035.164s-.026.1.021.15c.013.018-.013.069-.023.1zM26.689 31.547a.191.191 0 00-.127.066c-.128 0-.222.091-.339.122a.833.833 0 00-.191.079.427.427 0 01-.2.089.067.067 0 00-.035.016.479.479 0 01-.2.087c-.044.01-.081.054-.118.082 0 0 0 .025.007.025h.071a.262.262 0 00.081 0c.02-.01.086-.011.082-.069.043 0 .1 0 .127-.025.046-.049.1-.041.151-.046a.1.1 0 00.061-.021.1.1 0 01.084-.033.064.064 0 00.048-.015 1.084 1.084 0 01.3-.179c.081-.048.169-.082.253-.127.01 0 .021-.03.018-.036a.087.087 0 00-.041-.031.043.043 0 01-.037.019z" fill="#19a301"/></g></svg>